<?plantuml 1.2026.2?><svg xmlns="http://www.w3.org/2000/svg" xmlns:xlink="http://www.w3.org/1999/xlink" contentStyleType="text/css" data-diagram-type="CLASS" height="801px" preserveAspectRatio="none" style="width:1016px;height:801px;background:#FFFFFF;" version="1.1" viewBox="0 0 1016 801" width="1016px" zoomAndPan="magnify"><title>PetcliniX ??? JPA Entity Model</title><defs/><g><g class="title" data-source-line="2"><text fill="#000000" font-family="sans-serif" font-size="14" font-weight="bold" lengthAdjust="spacing" textLength="234.7734" x="383.9678" y="22.9951">PetcliniX ??? JPA Entity Model</text></g><!--class UserEntity--><g class="entity" data-qualified-name="UserEntity" data-source-line="11" id="ent0002"><rect fill="#EEEDFE" height="115.8438" rx="2.5" ry="2.5" style="stroke:#888888;stroke-width:0.5;" width="175.2949" x="375.84" y="44.2969"/><ellipse cx="428.2951" cy="59.2969" fill="#A9DCDF" rx="10" ry="10" style="stroke:#181818;stroke-width:1;"/><path d="M427.9045,56.375 L427.092,59.9531 L428.7326,59.9531 L427.9045,56.375 Z M426.8576,54.7969 L428.967,54.7969 L431.3263,63.5469 L429.592,63.5469 L429.0607,61.3906 L426.7482,61.3906 L426.217,63.5469 L424.4826,63.5469 L426.8576,54.7969 Z " fill="#000000"/><text fill="#000000" font-family="sans-serif" font-size="12" font-style="italic" lengthAdjust="spacing" textLength="62.3848" x="447.2951" y="63.4512">UserEntity</text><line style="stroke:#888888;stroke-width:0.5;" x1="376.84" x2="550.1349" y1="74.2969" y2="74.2969"/><text fill="#000000" font-family="sans-serif" font-size="12" lengthAdjust="spacing" textLength="44.0156" x="381.84" y="89.4355">Long id</text><text fill="#000000" font-family="sans-serif" font-size="12" lengthAdjust="spacing" textLength="163.2949" x="381.84" y="103.4043">String username  &#171;unique&#187;</text><text fill="#000000" font-family="sans-serif" font-size="12" lengthAdjust="spacing" textLength="127.043" x="381.84" y="117.373">String passwordHash</text><text fill="#000000" font-family="sans-serif" font-size="12" lengthAdjust="spacing" textLength="88.2656" x="381.84" y="131.3418">boolean active</text><line style="stroke:#888888;stroke-width:1;" x1="376.84" x2="550.1349" y1="138.1719" y2="138.1719"/><text fill="#000000" font-family="sans-serif" font-size="12" font-style="italic" lengthAdjust="spacing" textLength="142.5176" x="381.84" y="153.3105">accept(UserVisitor&lt;T&gt;)</text></g><!--class OwnerEntity--><g class="entity" data-qualified-name="OwnerEntity" data-source-line="20" id="ent0003"><rect fill="#EEEDFE" height="51.9688" rx="2.5" ry="2.5" style="stroke:#888888;stroke-width:0.5;" width="118.9746" x="7" y="274.0269"/><ellipse cx="27.6419" cy="289.0269" fill="#ADD1B2" rx="10" ry="10" style="stroke:#181818;stroke-width:1;"/><path d="M29.47,293.2769 Q29.0638,293.48 28.6106,293.5894 Q28.1575,293.6988 27.6731,293.6988 Q25.8919,293.6988 24.9544,292.5425 Q24.0325,291.3706 24.0325,289.1675 Q24.0325,286.9488 24.9544,285.7925 Q25.8919,284.6206 27.6731,284.6206 Q28.1575,284.6206 28.6106,284.73 Q29.0794,284.8238 29.47,285.0425 L29.47,286.9644 Q29.0325,286.5581 28.6106,286.3706 Q28.1888,286.1675 27.7513,286.1675 Q26.7981,286.1675 26.3138,286.9331 Q25.8294,287.6831 25.8294,289.1675 Q25.8294,290.6363 26.3138,291.3863 Q26.7981,292.1363 27.7513,292.1363 Q28.1888,292.1363 28.6106,291.9488 Q29.0325,291.7613 29.47,291.355 L29.47,293.2769 Z " fill="#000000"/><text fill="#000000" font-family="sans-serif" font-size="12" lengthAdjust="spacing" textLength="74.2148" x="42.1179" y="293.1812">OwnerEntity</text><line style="stroke:#888888;stroke-width:0.5;" x1="8" x2="124.9746" y1="304.0269" y2="304.0269"/><text fill="#000000" font-family="sans-serif" font-size="12" lengthAdjust="spacing" textLength="106.9746" x="13" y="319.1655">&#171;discriminator O&#187;</text></g><!--class VetEntity--><g class="entity" data-qualified-name="VetEntity" data-source-line="24" id="ent0004"><rect fill="#EEEDFE" height="51.9688" rx="2.5" ry="2.5" style="stroke:#888888;stroke-width:0.5;" width="117.7383" x="404.62" y="274.0269"/><ellipse cx="433.2037" cy="289.0269" fill="#ADD1B2" rx="10" ry="10" style="stroke:#181818;stroke-width:1;"/><path d="M435.0318,293.2769 Q434.6256,293.48 434.1724,293.5894 Q433.7193,293.6988 433.2349,293.6988 Q431.4537,293.6988 430.5162,292.5425 Q429.5943,291.3706 429.5943,289.1675 Q429.5943,286.9488 430.5162,285.7925 Q431.4537,284.6206 433.2349,284.6206 Q433.7193,284.6206 434.1724,284.73 Q434.6412,284.8238 435.0318,285.0425 L435.0318,286.9644 Q434.5943,286.5581 434.1724,286.3706 Q433.7506,286.1675 433.3131,286.1675 Q432.3599,286.1675 431.8756,286.9331 Q431.3912,287.6831 431.3912,289.1675 Q431.3912,290.6363 431.8756,291.3863 Q432.3599,292.1363 433.3131,292.1363 Q433.7506,292.1363 434.1724,291.9488 Q434.5943,291.7613 435.0318,291.355 L435.0318,293.2769 Z " fill="#000000"/><text fill="#000000" font-family="sans-serif" font-size="12" lengthAdjust="spacing" textLength="55.3301" x="449.4445" y="293.1812">VetEntity</text><line style="stroke:#888888;stroke-width:0.5;" x1="405.62" x2="521.3583" y1="304.0269" y2="304.0269"/><text fill="#000000" font-family="sans-serif" font-size="12" lengthAdjust="spacing" textLength="105.7383" x="410.62" y="319.1655">&#171;discriminator V&#187;</text></g><!--class AdminEntity--><g class="entity" data-qualified-name="AdminEntity" data-source-line="28" id="ent0005"><rect fill="#EEEDFE" height="51.9688" rx="2.5" ry="2.5" style="stroke:#888888;stroke-width:0.5;" width="117.7383" x="755.62" y="274.0269"/><ellipse cx="776.0325" cy="289.0269" fill="#ADD1B2" rx="10" ry="10" style="stroke:#181818;stroke-width:1;"/><path d="M777.8606,293.2769 Q777.4544,293.48 777.0013,293.5894 Q776.5481,293.6988 776.0638,293.6988 Q774.2825,293.6988 773.345,292.5425 Q772.4231,291.3706 772.4231,289.1675 Q772.4231,286.9488 773.345,285.7925 Q774.2825,284.6206 776.0638,284.6206 Q776.5481,284.6206 777.0013,284.73 Q777.47,284.8238 777.8606,285.0425 L777.8606,286.9644 Q777.4231,286.5581 777.0013,286.3706 Q776.5794,286.1675 776.1419,286.1675 Q775.1888,286.1675 774.7044,286.9331 Q774.22,287.6831 774.22,289.1675 Q774.22,290.6363 774.7044,291.3863 Q775.1888,292.1363 776.1419,292.1363 Q776.5794,292.1363 777.0013,291.9488 Q777.4231,291.7613 777.8606,291.355 L777.8606,293.2769 Z " fill="#000000"/><text fill="#000000" font-family="sans-serif" font-size="12" lengthAdjust="spacing" textLength="73.4883" x="790.4575" y="293.1812">AdminEntity</text><line style="stroke:#888888;stroke-width:0.5;" x1="756.62" x2="872.3583" y1="304.0269" y2="304.0269"/><text fill="#000000" font-family="sans-serif" font-size="12" lengthAdjust="spacing" textLength="105.7383" x="761.62" y="319.1655">&#171;discriminator A&#187;</text></g><!--class PetEntity--><g class="entity" data-qualified-name="PetEntity" data-source-line="38" id="ent0009"><rect fill="#FAECE7" height="129.8125" rx="2.5" ry="2.5" style="stroke:#888888;stroke-width:0.5;" width="164.4844" x="205.25" y="235.1069"/><ellipse cx="256.3135" cy="250.1069" fill="#ADD1B2" rx="10" ry="10" style="stroke:#181818;stroke-width:1;"/><path d="M258.1416,254.3569 Q257.7354,254.56 257.2822,254.6694 Q256.8291,254.7787 256.3447,254.7787 Q254.5635,254.7787 253.626,253.6225 Q252.7041,252.4506 252.7041,250.2475 Q252.7041,248.0287 253.626,246.8725 Q254.5635,245.7006 256.3447,245.7006 Q256.8291,245.7006 257.2822,245.81 Q257.751,245.9037 258.1416,246.1225 L258.1416,248.0444 Q257.7041,247.6381 257.2822,247.4506 Q256.8604,247.2475 256.4229,247.2475 Q255.4697,247.2475 254.9854,248.0131 Q254.501,248.7631 254.501,250.2475 Q254.501,251.7162 254.9854,252.4662 Q255.4697,253.2162 256.4229,253.2162 Q256.8604,253.2162 257.2822,253.0287 Q257.7041,252.8412 258.1416,252.435 L258.1416,254.3569 Z " fill="#000000"/><text fill="#000000" font-family="sans-serif" font-size="12" lengthAdjust="spacing" textLength="54.3574" x="275.3135" y="254.2612">PetEntity</text><line style="stroke:#888888;stroke-width:0.5;" x1="206.25" x2="368.7344" y1="265.1069" y2="265.1069"/><text fill="#000000" font-family="sans-serif" font-size="12" lengthAdjust="spacing" textLength="44.0156" x="211.25" y="280.2455">Long id</text><text fill="#000000" font-family="sans-serif" font-size="12" lengthAdjust="spacing" textLength="73.6582" x="211.25" y="294.2143">String name</text><text fill="#000000" font-family="sans-serif" font-size="12" lengthAdjust="spacing" textLength="94.8164" x="211.25" y="308.183">Species species</text><text fill="#000000" font-family="sans-serif" font-size="12" lengthAdjust="spacing" textLength="90.5742" x="211.25" y="322.1518">Gender gender</text><text fill="#000000" font-family="sans-serif" font-size="12" lengthAdjust="spacing" textLength="120.6855" x="211.25" y="336.1205">LocalDate birthDate</text><line style="stroke:#888888;stroke-width:1;" x1="206.25" x2="368.7344" y1="342.9506" y2="342.9506"/><text fill="#000000" font-family="sans-serif" font-size="12" lengthAdjust="spacing" textLength="152.4844" x="211.25" y="358.0893">&#171;unique: name + owner&#187;</text></g><!--class LocationEntity--><g class="entity" data-qualified-name="LocationEntity" data-source-line="52" id="ent0011"><rect fill="#E1F5EE" height="157.75" rx="2.5" ry="2.5" style="stroke:#888888;stroke-width:0.5;" width="118.9512" x="602.01" y="221.1369"/><ellipse cx="617.3389" cy="236.1369" fill="#ADD1B2" rx="10" ry="10" style="stroke:#181818;stroke-width:1;"/><path d="M619.167,240.3869 Q618.7608,240.59 618.3077,240.6994 Q617.8545,240.8088 617.3702,240.8088 Q615.5889,240.8088 614.6514,239.6525 Q613.7295,238.4806 613.7295,236.2775 Q613.7295,234.0588 614.6514,232.9025 Q615.5889,231.7306 617.3702,231.7306 Q617.8545,231.7306 618.3077,231.84 Q618.7764,231.9338 619.167,232.1525 L619.167,234.0744 Q618.7295,233.6681 618.3077,233.4806 Q617.8858,233.2775 617.4483,233.2775 Q616.4952,233.2775 616.0108,234.0431 Q615.5264,234.7931 615.5264,236.2775 Q615.5264,237.7463 616.0108,238.4963 Q616.4952,239.2463 617.4483,239.2463 Q617.8858,239.2463 618.3077,239.0588 Q618.7295,238.8713 619.167,238.465 L619.167,240.3869 Z " fill="#000000"/><text fill="#000000" font-family="sans-serif" font-size="12" lengthAdjust="spacing" textLength="85.998" x="630.6342" y="240.2912">LocationEntity</text><line style="stroke:#888888;stroke-width:0.5;" x1="603.01" x2="719.9612" y1="251.1369" y2="251.1369"/><text fill="#000000" font-family="sans-serif" font-size="12" lengthAdjust="spacing" textLength="44.0156" x="608.01" y="266.2755">Long id</text><text fill="#000000" font-family="sans-serif" font-size="12" lengthAdjust="spacing" textLength="73.6582" x="608.01" y="280.2443">String name</text><text fill="#000000" font-family="sans-serif" font-size="12" lengthAdjust="spacing" textLength="79.4121" x="608.01" y="294.213">String zoneId</text><text fill="#000000" font-family="sans-serif" font-size="12" lengthAdjust="spacing" textLength="74.9883" x="608.01" y="308.1818">String street</text><text fill="#000000" font-family="sans-serif" font-size="12" lengthAdjust="spacing" textLength="106.9512" x="608.01" y="322.1505">String postalCode</text><text fill="#000000" font-family="sans-serif" font-size="12" lengthAdjust="spacing" textLength="61.3652" x="608.01" y="336.1193">String city</text><text fill="#000000" font-family="sans-serif" font-size="12" lengthAdjust="spacing" textLength="85.5176" x="608.01" y="350.088">String country</text><line style="stroke:#888888;stroke-width:1;" x1="603.01" x2="719.9612" y1="356.9181" y2="356.9181"/><text fill="#000000" font-family="sans-serif" font-size="12" lengthAdjust="spacing" textLength="105.6797" x="608.01" y="372.0568">isOpenAt(Instant)</text></g><!--class OpeningPeriodEntity--><g class="entity" data-qualified-name="OpeningPeriodEntity" data-source-line="64" id="ent0012"><rect fill="#E1F5EE" height="129.8125" rx="2.5" ry="2.5" style="stroke:#888888;stroke-width:0.5;" width="285.5391" x="437.72" y="474.8769"/><ellipse cx="514.7464" cy="489.8769" fill="#ADD1B2" rx="10" ry="10" style="stroke:#181818;stroke-width:1;"/><path d="M516.5745,494.1269 Q516.1682,494.33 515.7151,494.4394 Q515.262,494.5488 514.7776,494.5488 Q512.9964,494.5488 512.0589,493.3925 Q511.137,492.2206 511.137,490.0175 Q511.137,487.7988 512.0589,486.6425 Q512.9964,485.4706 514.7776,485.4706 Q515.262,485.4706 515.7151,485.58 Q516.1839,485.6738 516.5745,485.8925 L516.5745,487.8144 Q516.137,487.4081 515.7151,487.2206 Q515.2932,487.0175 514.8557,487.0175 Q513.9026,487.0175 513.4182,487.7831 Q512.9339,488.5331 512.9339,490.0175 Q512.9339,491.4863 513.4182,492.2363 Q513.9026,492.9863 514.8557,492.9863 Q515.2932,492.9863 515.7151,492.7988 Q516.137,492.6113 516.5745,492.205 L516.5745,494.1269 Z " fill="#000000"/><text fill="#000000" font-family="sans-serif" font-size="12" lengthAdjust="spacing" textLength="123.4863" x="533.7464" y="494.0312">OpeningPeriodEntity</text><line style="stroke:#888888;stroke-width:0.5;" x1="438.72" x2="722.2591" y1="504.8769" y2="504.8769"/><text fill="#000000" font-family="sans-serif" font-size="12" lengthAdjust="spacing" textLength="44.0156" x="443.72" y="520.0155">Long id</text><text fill="#000000" font-family="sans-serif" font-size="12" lengthAdjust="spacing" textLength="202.2305" x="443.72" y="533.9843">int dayOfWeek  &#171;1=Mon, 7=Sun&#187;</text><text fill="#000000" font-family="sans-serif" font-size="12" lengthAdjust="spacing" textLength="122.5488" x="443.72" y="547.953">LocalTime startTime</text><text fill="#000000" font-family="sans-serif" font-size="12" lengthAdjust="spacing" textLength="117.2051" x="443.72" y="561.9218">LocalTime endTime</text><text fill="#000000" font-family="sans-serif" font-size="12" lengthAdjust="spacing" textLength="77.0039" x="443.72" y="575.8905">int sortOrder</text><line style="stroke:#888888;stroke-width:1;" x1="438.72" x2="722.2591" y1="582.7206" y2="582.7206"/><text fill="#000000" font-family="sans-serif" font-size="12" lengthAdjust="spacing" textLength="273.5391" x="443.72" y="597.8593">&#171;unique: location + dayOfWeek + sortOrder&#187;</text></g><!--class OpeningOverrideEntity--><g class="entity" data-qualified-name="OpeningOverrideEntity" data-source-line="74" id="ent0013"><rect fill="#E1F5EE" height="143.7813" rx="2.5" ry="2.5" style="stroke:#888888;stroke-width:0.5;" width="168.0469" x="758.46" y="467.8869"/><ellipse cx="772.5839" cy="482.8869" fill="#ADD1B2" rx="10" ry="10" style="stroke:#181818;stroke-width:1;"/><path d="M774.4121,487.1369 Q774.0058,487.34 773.5527,487.4494 Q773.0996,487.5588 772.6152,487.5588 Q770.8339,487.5588 769.8964,486.4025 Q768.9746,485.2306 768.9746,483.0275 Q768.9746,480.8088 769.8964,479.6525 Q770.8339,478.4806 772.6152,478.4806 Q773.0996,478.4806 773.5527,478.59 Q774.0214,478.6838 774.4121,478.9025 L774.4121,480.8244 Q773.9746,480.4181 773.5527,480.2306 Q773.1308,480.0275 772.6933,480.0275 Q771.7402,480.0275 771.2558,480.7931 Q770.7714,481.5431 770.7714,483.0275 Q770.7714,484.4963 771.2558,485.2463 Q771.7402,485.9963 772.6933,485.9963 Q773.1308,485.9963 773.5527,485.8088 Q773.9746,485.6213 774.4121,485.215 L774.4121,487.1369 Z " fill="#000000"/><text fill="#000000" font-family="sans-serif" font-size="12" lengthAdjust="spacing" textLength="137.7715" x="785.6115" y="487.0412">OpeningOverrideEntity</text><line style="stroke:#888888;stroke-width:0.5;" x1="759.46" x2="925.5069" y1="497.8869" y2="497.8869"/><text fill="#000000" font-family="sans-serif" font-size="12" lengthAdjust="spacing" textLength="44.0156" x="764.46" y="513.0255">Long id</text><text fill="#000000" font-family="sans-serif" font-size="12" lengthAdjust="spacing" textLength="90.8672" x="764.46" y="526.9943">LocalDate date</text><text fill="#000000" font-family="sans-serif" font-size="12" lengthAdjust="spacing" textLength="124.5469" x="764.46" y="540.963">LocalTime openTime</text><text fill="#000000" font-family="sans-serif" font-size="12" lengthAdjust="spacing" textLength="125.5078" x="764.46" y="554.9318">LocalTime closeTime</text><text fill="#000000" font-family="sans-serif" font-size="12" lengthAdjust="spacing" textLength="90.3164" x="764.46" y="568.9005">boolean closed</text><text fill="#000000" font-family="sans-serif" font-size="12" lengthAdjust="spacing" textLength="80.4961" x="764.46" y="582.8693">String reason</text><line style="stroke:#888888;stroke-width:1;" x1="759.46" x2="925.5069" y1="589.6994" y2="589.6994"/><text fill="#000000" font-family="sans-serif" font-size="12" lengthAdjust="spacing" textLength="156.0469" x="764.46" y="604.838">&#171;unique: location + date&#187;</text></g><!--class AppointmentEntity--><g class="entity" data-qualified-name="AppointmentEntity" data-source-line="91" id="ent0017"><rect fill="#FAEEDA" height="65.9375" rx="2.5" ry="2.5" style="stroke:#888888;stroke-width:0.5;" width="146.4082" x="250.28" y="506.8169"/><ellipse cx="265.8831" cy="521.8169" fill="#ADD1B2" rx="10" ry="10" style="stroke:#181818;stroke-width:1;"/><path d="M267.7113,526.0669 Q267.305,526.27 266.8519,526.3794 Q266.3988,526.4888 265.9144,526.4888 Q264.1331,526.4888 263.1956,525.3325 Q262.2738,524.1606 262.2738,521.9575 Q262.2738,519.7388 263.1956,518.5825 Q264.1331,517.4106 265.9144,517.4106 Q266.3988,517.4106 266.8519,517.52 Q267.3206,517.6138 267.7113,517.8325 L267.7113,519.7544 Q267.2738,519.3481 266.8519,519.1606 Q266.43,518.9575 265.9925,518.9575 Q265.0394,518.9575 264.555,519.7231 Q264.0706,520.4731 264.0706,521.9575 Q264.0706,523.4263 264.555,524.1763 Q265.0394,524.9263 265.9925,524.9263 Q266.43,524.9263 266.8519,524.7388 Q267.2738,524.5513 267.7113,524.145 L267.7113,526.0669 Z " fill="#000000"/><text fill="#000000" font-family="sans-serif" font-size="12" lengthAdjust="spacing" textLength="112.8457" x="279.2394" y="525.9712">AppointmentEntity</text><line style="stroke:#888888;stroke-width:0.5;" x1="251.28" x2="395.6882" y1="536.8169" y2="536.8169"/><text fill="#000000" font-family="sans-serif" font-size="12" lengthAdjust="spacing" textLength="44.0156" x="256.28" y="551.9555">Long id</text><text fill="#000000" font-family="sans-serif" font-size="12" lengthAdjust="spacing" textLength="134.4082" x="256.28" y="565.9243">LocalDateTime startAt</text></g><!--class VisitEntity--><g class="entity" data-qualified-name="VisitEntity" data-source-line="96" id="ent0018"><rect fill="#FAEEDA" height="93.875" rx="2.5" ry="2.5" style="stroke:#888888;stroke-width:0.5;" width="146.6953" x="250.14" y="700.6769"/><ellipse cx="289.2627" cy="715.6769" fill="#ADD1B2" rx="10" ry="10" style="stroke:#181818;stroke-width:1;"/><path d="M291.0908,719.9269 Q290.6845,720.13 290.2314,720.2394 Q289.7783,720.3488 289.2939,720.3488 Q287.5127,720.3488 286.5752,719.1925 Q285.6533,718.0206 285.6533,715.8175 Q285.6533,713.5988 286.5752,712.4425 Q287.5127,711.2706 289.2939,711.2706 Q289.7783,711.2706 290.2314,711.38 Q290.7002,711.4738 291.0908,711.6925 L291.0908,713.6144 Q290.6533,713.2081 290.2314,713.0206 Q289.8095,712.8175 289.372,712.8175 Q288.4189,712.8175 287.9345,713.5831 Q287.4502,714.3331 287.4502,715.8175 Q287.4502,717.2863 287.9345,718.0363 Q288.4189,718.7863 289.372,718.7863 Q289.8095,718.7863 290.2314,718.5988 Q290.6533,718.4113 291.0908,718.005 L291.0908,719.9269 Z " fill="#000000"/><text fill="#000000" font-family="sans-serif" font-size="12" lengthAdjust="spacing" textLength="60.8672" x="307.8455" y="719.8312">VisitEntity</text><line style="stroke:#888888;stroke-width:0.5;" x1="251.14" x2="395.8353" y1="730.6769" y2="730.6769"/><text fill="#000000" font-family="sans-serif" font-size="12" lengthAdjust="spacing" textLength="44.0156" x="256.14" y="745.8155">Long id</text><text fill="#000000" font-family="sans-serif" font-size="12" lengthAdjust="spacing" textLength="116.8066" x="256.14" y="759.7843">String vetSummary</text><text fill="#000000" font-family="sans-serif" font-size="12" lengthAdjust="spacing" textLength="134.6953" x="256.14" y="773.753">String ownerSummary</text><text fill="#000000" font-family="sans-serif" font-size="12" lengthAdjust="spacing" textLength="108.5566" x="256.14" y="787.7218">String vaccination</text></g><!--reverse link UserEntity to OwnerEntity--><g class="link" data-entity-1="ent0002" data-entity-2="ent0003" data-link-type="extension" data-source-line="32" id="lnk6"><path codeLine="32" d="M358.6088,143.1153 C303.5388,164.9653 248.48,188.7769 187.49,221.1369 C157.81,236.8869 125.91,257.5869 102.33,273.6869" fill="none" id="UserEntity-backto-OwnerEntity" style="stroke:#181818;stroke-width:1;"/><polygon fill="none" points="375.34,136.4769,356.396,137.5382,360.8216,148.6923,375.34,136.4769" style="stroke:#181818;stroke-width:1;"/></g><!--reverse link UserEntity to VetEntity--><g class="link" data-entity-1="ent0002" data-entity-2="ent0004" data-link-type="extension" data-source-line="33" id="lnk7"><path codeLine="33" d="M463.49,178.3769 C463.49,215.8569 463.49,245.0169 463.49,273.5569" fill="none" id="UserEntity-backto-VetEntity" style="stroke:#181818;stroke-width:1;"/><polygon fill="none" points="463.49,160.3769,457.49,178.3769,469.49,178.3769,463.49,160.3769" style="stroke:#181818;stroke-width:1;"/></g><!--reverse link UserEntity to AdminEntity--><g class="link" data-entity-1="ent0002" data-entity-2="ent0005" data-link-type="extension" data-source-line="34" id="lnk8"><path codeLine="34" d="M568.543,137.0264 C624.843,157.1164 680.87,181.6169 738.49,221.1369 C759.83,235.7869 780.09,257.0569 794.32,273.6669" fill="none" id="UserEntity-backto-AdminEntity" style="stroke:#181818;stroke-width:1;"/><polygon fill="none" points="551.59,130.9769,566.5265,142.6773,570.5595,131.3754,551.59,130.9769" style="stroke:#181818;stroke-width:1;"/></g><!--reverse link OwnerEntity to PetEntity--><g class="link" data-entity-1="ent0003" data-entity-2="ent0009" data-link-type="composition" data-source-line="48" id="lnk10"><path codeLine="48" d="M138.29,300.0169 C162.45,300.0169 178.74,300.0169 204.82,300.0169" fill="none" id="OwnerEntity-backto-PetEntity" style="stroke:#181818;stroke-width:1;"/><polygon fill="#181818" points="126.29,300.0169,132.29,304.0169,138.29,300.0169,132.29,296.0169,126.29,300.0169" style="stroke:#181818;stroke-width:1;"/><polygon fill="#000000" points="151.11,290.0013,143.8739,287.6501,143.8739,292.3524,151.11,290.0013" style="stroke:#000000;stroke-width:1;"/><text fill="#000000" font-family="sans-serif" font-size="12" lengthAdjust="spacing" textLength="31.0137" x="156.11" y="294.1555">owns</text><text fill="#000000" font-family="sans-serif" font-size="12" lengthAdjust="spacing" textLength="7.6348" x="134.0437" y="297.4231">1</text><text fill="#000000" font-family="sans-serif" font-size="12" lengthAdjust="spacing" textLength="21.2637" x="176.1151" y="311.7343">0..*</text></g><!--reverse link VetEntity to LocationEntity--><g class="link" data-entity-1="ent0004" data-entity-2="ent0011" data-link-type="composition" data-source-line="85" id="lnk14"><path codeLine="85" d="M534.63,300.0169 C559.58,300.0169 576.59,300.0169 601.63,300.0169" fill="none" id="VetEntity-backto-LocationEntity" style="stroke:#181818;stroke-width:1;"/><polygon fill="#181818" points="522.63,300.0169,528.63,304.0169,534.63,300.0169,528.63,296.0169,522.63,300.0169" style="stroke:#181818;stroke-width:1;"/><polygon fill="#000000" points="547.68,290.0013,540.4439,287.6501,540.4439,292.3524,547.68,290.0013" style="stroke:#000000;stroke-width:1;"/><text fill="#000000" font-family="sans-serif" font-size="12" lengthAdjust="spacing" textLength="31.0137" x="552.68" y="294.1555">owns</text><text fill="#000000" font-family="sans-serif" font-size="12" lengthAdjust="spacing" textLength="7.6348" x="530.303" y="297.4231">1</text><text fill="#000000" font-family="sans-serif" font-size="12" lengthAdjust="spacing" textLength="21.2637" x="572.9493" y="311.92">0..*</text></g><!--reverse link LocationEntity to OpeningPeriodEntity--><g class="link" data-entity-1="ent0011" data-entity-2="ent0012" data-link-type="composition" data-source-line="86" id="lnk15"><path codeLine="86" d="M618.3413,390.2587 C614.1413,400.1287 614.87,399.1369 611.49,408.8869 C604.19,429.9169 598,453.4369 593.12,474.6269" fill="none" id="LocationEntity-backto-OpeningPeriodEntity" style="stroke:#181818;stroke-width:1;"/><polygon fill="#181818" points="623.04,379.2169,617.0101,383.1716,618.3413,390.2587,624.3713,386.304,623.04,379.2169" style="stroke:#181818;stroke-width:1;"/><text fill="#000000" font-family="sans-serif" font-size="12" lengthAdjust="spacing" textLength="44.4785" x="683.5203" y="421.0255">periods</text><text fill="#000000" font-family="sans-serif" font-size="12" lengthAdjust="spacing" textLength="186.5391" x="612.49" y="434.9943">(cascade ALL, orphanRemoval)</text><text fill="#000000" font-family="sans-serif" font-size="12" lengthAdjust="spacing" textLength="7.6348" x="612.3325" y="398.0318">1</text><text fill="#000000" font-family="sans-serif" font-size="12" lengthAdjust="spacing" textLength="21.2637" x="572.3957" y="464.0915">0..*</text></g><!--reverse link LocationEntity to OpeningOverrideEntity--><g class="link" data-entity-1="ent0011" data-entity-2="ent0013" data-link-type="composition" data-source-line="87" id="lnk16"><path codeLine="87" d="M730.1388,373.039 C735.8288,377.919 732.57,374.7369 738.49,378.8869 C764.53,397.1669 782.63,384.8669 803.49,408.8869 C817.77,425.3369 826.82,446.8569 832.56,467.6369" fill="none" id="LocationEntity-backto-OpeningOverrideEntity" style="stroke:#181818;stroke-width:1;"/><polygon fill="#181818" points="721.03,365.2269,722.9804,372.1692,730.1388,373.039,728.1885,366.0967,721.03,365.2269" style="stroke:#181818;stroke-width:1;"/><text fill="#000000" font-family="sans-serif" font-size="12" lengthAdjust="spacing" textLength="56.2793" x="887.2999" y="421.0255">overrides</text><text fill="#000000" font-family="sans-serif" font-size="12" lengthAdjust="spacing" textLength="186.5391" x="822.17" y="434.9943">(cascade ALL, orphanRemoval)</text><text fill="#000000" font-family="sans-serif" font-size="12" lengthAdjust="spacing" textLength="7.6348" x="729.1482" y="370.9505">1</text><text fill="#000000" font-family="sans-serif" font-size="12" lengthAdjust="spacing" textLength="21.2637" x="809.3406" y="457.2272">0..*</text></g><!--reverse link PetEntity to AppointmentEntity--><g class="link" data-entity-1="ent0009" data-entity-2="ent0017" data-link-type="aggregation" data-source-line="103" id="lnk19"><path codeLine="103" d="M299.0256,377.2218 C305.9356,422.8818 313.13,470.3869 318.6,506.4769" fill="none" id="PetEntity-backto-AppointmentEntity" style="stroke:#181818;stroke-width:1;"/><polygon fill="none" points="297.23,365.3569,294.1728,371.8879,299.0256,377.2218,302.0828,370.6908,297.23,365.3569" style="stroke:#181818;stroke-width:1;"/><polygon fill="#000000" points="312.2389,427.8262,313.4801,420.3196,308.8308,421.0237,312.2389,427.8262" style="stroke:#000000;stroke-width:1;"/><text fill="#000000" font-family="sans-serif" font-size="12" lengthAdjust="spacing" textLength="64.5645" x="320.64" y="428.0255">booked for</text><text fill="#000000" font-family="sans-serif" font-size="12" lengthAdjust="spacing" textLength="7.6348" x="290.906" y="383.9544">1</text><text fill="#000000" font-family="sans-serif" font-size="12" lengthAdjust="spacing" textLength="21.2637" x="294.2636" y="496.0133">0..*</text></g><!--reverse link VetEntity to AppointmentEntity--><g class="link" data-entity-1="ent0004" data-entity-2="ent0017" data-link-type="aggregation" data-source-line="104" id="lnk20"><path codeLine="104" d="M446.6945,337.1372 C433.5245,365.0172 416.12,400.1069 393.49,437.8869 C379.36,461.4869 361.69,486.9169 347.64,506.3469" fill="none" id="VetEntity-backto-AppointmentEntity" style="stroke:#181818;stroke-width:1;"/><polygon fill="none" points="451.82,326.2869,445.6405,330.0035,446.6945,337.1372,452.874,333.4205,451.82,326.2869" style="stroke:#181818;stroke-width:1;"/><polygon fill="#000000" points="410.1092,427.3233,415.7939,422.2663,411.7358,419.8907,410.1092,427.3233" style="stroke:#000000;stroke-width:1;"/><text fill="#000000" font-family="sans-serif" font-size="12" lengthAdjust="spacing" textLength="69.2754" x="421.13" y="428.0255">assigned to</text><text fill="#000000" font-family="sans-serif" font-size="12" lengthAdjust="spacing" textLength="7.6348" x="441.3855" y="345.1169">1</text><text fill="#000000" font-family="sans-serif" font-size="12" lengthAdjust="spacing" textLength="21.2637" x="329.6561" y="495.8549">0..*</text></g><!--reverse link AppointmentEntity to VisitEntity--><g class="link" data-entity-1="ent0017" data-entity-2="ent0018" data-link-type="composition" data-source-line="105" id="lnk21"><path codeLine="105" d="M323.49,584.9469 C323.49,619.1969 323.49,661.7369 323.49,700.5469" fill="none" id="AppointmentEntity-backto-VisitEntity" style="stroke:#181818;stroke-width:1;"/><polygon fill="#181818" points="323.49,572.9469,319.49,578.9469,323.49,584.9469,327.49,578.9469,323.49,572.9469" style="stroke:#181818;stroke-width:1;"/><text fill="#000000" font-family="sans-serif" font-size="12" lengthAdjust="spacing" textLength="71.2266" x="382.1463" y="653.8155">recorded as</text><text fill="#000000" font-family="sans-serif" font-size="12" lengthAdjust="spacing" textLength="186.5391" x="324.49" y="667.7843">(cascade ALL, orphanRemoval)</text><text fill="#000000" font-family="sans-serif" font-size="12" lengthAdjust="spacing" textLength="7.6348" x="315.8646" y="591.9892">1</text><text fill="#000000" font-family="sans-serif" font-size="12" lengthAdjust="spacing" textLength="22.8984" x="299.7429" y="689.8937">0..1</text></g><?plantuml-src pLRVRzem47xFNt6YqjPVcSQagHkYL5aRjawjGAFhzh0Naro9HM9djg6YNV_tdPD0N62KXsfRaC0v-_DzT_VvZE4cHUYZYL8k-7SuEJc1p_q0Gc6ucS6bZ37rF3tc8cUAPH2bJEiFB1gFb9o8-5IcKi5Ezxtzh2oJAaPLBNbNFCwI66_O93LTASo0to4qttW9Zn4moybnXjaGbVQybvQIPVLLeuA4es8gIcQmgxaOfUWRDgG0k4XGSSD4X7iLuBaUpsD3RHIBJ1bLGQHApquOXcVT4EuzW0ifHi1Z6WsC8cumeNM2PGZGRay4_pd1JgUUpMchMqhG9wOJiWwbJ94983TyYcJmVVgwdxj-e8a8SxDhdLzppOrKxQlEdlVWUIMhtgrOIwlTZhcE5C-uO0I27f5OWAxHR06vTY51JEOjG449SfBL_kNxBisLkGMRbHd7gQC8Kgr-vcB_vMUUr7vTXsuGdeP7wnLbrMJVSemuQj3bBra-eg2J1gFYfq16B3rZ1c78bKdiQ2wfkHPRnMvm0D9Mf2oMgw56im7xlkAZnFZGUFtgrNx3eTcoC0qTfnhMf-6Ih2z0vYWiuKHErBykqJp7StuBxJQxRyDmSwBBjpifyDoPfIE9Q9oZBBLXwIcrojeMMQdMRzGhZPhDQy1rZn8KcDrpGKXXt6DSPgvFtKp66wboOI1cizxDDyInhMlp-5AAGpWw7an4qMaA5LnngZ9vKSQE7bb9BPNDxgMbCZrLwcT9AMcLEb9BxV6WHhZzeGgWDqMbg9rl3A6MQLmgjEPc5RH2E4gbniewRvY5pIcEGgQbU286WoNbkl-ja_kIOXQQNxANq0LgNGLRa1Ul-eVOZPYE6DrpmSN58KYL9qnymKnEMRgttSvBgILQbU6ftUkp6kIvf9fdA8mzhbDxeVnFhNHnsTGydVuOdWL_4bAjzi0urvoDR-C6bNYcQ0QJB6FAERj5VronJka-jZST5SlwwJyIalHZGYtgjXf5oyftZ37Sq4tPMPBX5cWAYey4uOqa-EeALpWqTEDlqGc9x1-pc7PvGZ2_0G00?></g></svg>