<?plantuml 1.2026.2?><svg xmlns="http://www.w3.org/2000/svg" xmlns:xlink="http://www.w3.org/1999/xlink" contentStyleType="text/css" data-diagram-type="DESCRIPTION" height="688px" preserveAspectRatio="none" style="width:1839px;height:688px;background:#FFFFFF;" version="1.1" viewBox="0 0 1839 688" width="1839px" zoomAndPan="magnify"><title>PetcliniX - Package Layer Dependencies
(allowed --&gt; and forbidden ..&gt; red)</title><defs/><g><g class="title" data-source-line="2"><text fill="#000000" font-family="sans-serif" font-size="14" font-weight="bold" lengthAdjust="spacing" textLength="316.3945" x="754.5877" y="22.9951">PetcliniX - Package Layer Dependencies</text><text fill="#000000" font-family="sans-serif" font-size="14" font-weight="bold" lengthAdjust="spacing" textLength="276.7939" x="774.388" y="39.292">(allowed --&gt; and forbidden ..&gt; red)</text></g><!--cluster web--><g class="cluster" data-qualified-name="web" data-source-line="9" id="ent0002"><rect fill="#FAECE7" height="226.93" rx="2.5" ry="2.5" style="stroke:#888888;stroke-width:1;" width="273" x="97.57" y="155.4838"/><text fill="#000000" font-family="sans-serif" font-size="12" font-weight="bold" lengthAdjust="spacing" textLength="27.8145" x="220.1628" y="168.6224">web</text></g><!--cluster security--><g class="cluster" data-qualified-name="security" data-source-line="15" id="ent0006"><rect fill="#EEEDFE" height="381.9" rx="2.5" ry="2.5" style="stroke:#888888;stroke-width:1;" width="161" x="1672.57" y="155.4838"/><text fill="#000000" font-family="sans-serif" font-size="12" font-weight="bold" lengthAdjust="spacing" textLength="54.5273" x="1725.8063" y="168.6224">security</text></g><!--cluster logic--><g class="cluster" data-qualified-name="logic" data-source-line="21" id="ent0010"><rect fill="#FAEEDA" height="445.9" rx="2.5" ry="2.5" style="stroke:#888888;stroke-width:1;" width="584" x="581.57" y="115.4837"/><text fill="#000000" font-family="sans-serif" font-size="12" font-weight="bold" lengthAdjust="spacing" textLength="32.1738" x="857.4831" y="128.6224">logic</text></g><!--cluster domain--><g class="cluster" data-qualified-name="logic.domain" data-source-line="22" id="ent0011"><rect fill="#FFF8E8" height="107.97" rx="2.5" ry="2.5" style="stroke:#888888;stroke-width:1;" width="536" x="605.57" y="429.4138"/><text fill="#000000" font-family="sans-serif" font-size="12" font-weight="bold" lengthAdjust="spacing" textLength="50.0918" x="848.5241" y="442.5524">domain</text></g><!--cluster service--><g class="cluster" data-qualified-name="logic.service" data-source-line="27" id="ent0015"><rect fill="#FFF2D0" height="226.93" rx="2.5" ry="2.5" style="stroke:#888888;stroke-width:1;" width="376" x="605.57" y="155.4838"/><text fill="#000000" font-family="sans-serif" font-size="12" font-weight="bold" lengthAdjust="spacing" textLength="48.3867" x="769.3766" y="168.6224">service</text></g><!--cluster persistence--><g class="cluster" data-qualified-name="persistence" data-source-line="34" id="ent0019"><rect fill="#E1F5EE" height="252.94" rx="2.5" ry="2.5" style="stroke:#888888;stroke-width:1;" width="323" x="1189.57" y="429.4138"/><text fill="#000000" font-family="sans-serif" font-size="12" font-weight="bold" lengthAdjust="spacing" textLength="78.7148" x="1311.7126" y="442.5524">persistence</text></g><!--entity Controller--><g class="entity" data-qualified-name="web.Controller" data-source-line="10" id="ent0003"><rect fill="#F1F1F1" height="43.9688" rx="2.5" ry="2.5" style="stroke:#181818;stroke-width:0.5;" width="99.291" x="254.93" y="203.4838"/><rect fill="#F1F1F1" height="10" style="stroke:#181818;stroke-width:0.5;" width="15" x="334.221" y="208.4838"/><rect fill="#F1F1F1" height="2" style="stroke:#181818;stroke-width:0.5;" width="4" x="332.221" y="210.4838"/><rect fill="#F1F1F1" height="2" style="stroke:#181818;stroke-width:0.5;" width="4" x="332.221" y="214.4838"/><text fill="#000000" font-family="sans-serif" font-size="12" lengthAdjust="spacing" textLength="59.291" x="269.93" y="234.6224">Controller</text></g><!--entity DTO--><g class="entity" data-qualified-name="web.DTO" data-source-line="11" id="ent0004"><rect fill="#F1F1F1" height="43.9688" rx="2.5" ry="2.5" style="stroke:#181818;stroke-width:0.5;" width="66.0156" x="285.57" y="322.4437"/><rect fill="#F1F1F1" height="10" style="stroke:#181818;stroke-width:0.5;" width="15" x="331.5856" y="327.4437"/><rect fill="#F1F1F1" height="2" style="stroke:#181818;stroke-width:0.5;" width="4" x="329.5856" y="329.4437"/><rect fill="#F1F1F1" height="2" style="stroke:#181818;stroke-width:0.5;" width="4" x="329.5856" y="333.4437"/><text fill="#000000" font-family="sans-serif" font-size="12" lengthAdjust="spacing" textLength="26.0156" x="300.57" y="353.5824">DTO</text></g><!--entity DtoMapper--><g class="entity" data-qualified-name="web.DtoMapper" data-source-line="12" id="ent0005"><rect fill="#F1F1F1" height="43.9688" rx="2.5" ry="2.5" style="stroke:#181818;stroke-width:0.5;" width="106.5449" x="113.3" y="203.4838"/><rect fill="#F1F1F1" height="10" style="stroke:#181818;stroke-width:0.5;" width="15" x="199.8449" y="208.4838"/><rect fill="#F1F1F1" height="2" style="stroke:#181818;stroke-width:0.5;" width="4" x="197.8449" y="210.4838"/><rect fill="#F1F1F1" height="2" style="stroke:#181818;stroke-width:0.5;" width="4" x="197.8449" y="214.4838"/><text fill="#000000" font-family="sans-serif" font-size="12" lengthAdjust="spacing" textLength="66.5449" x="128.3" y="234.6224">DtoMapper</text></g><!--entity JwtFilter--><g class="entity" data-qualified-name="security.JwtFilter" data-source-line="16" id="ent0007"><rect fill="#F1F1F1" height="43.9688" rx="2.5" ry="2.5" style="stroke:#181818;stroke-width:0.5;" width="88.6504" x="1698.25" y="322.4437"/><rect fill="#F1F1F1" height="10" style="stroke:#181818;stroke-width:0.5;" width="15" x="1766.9004" y="327.4437"/><rect fill="#F1F1F1" height="2" style="stroke:#181818;stroke-width:0.5;" width="4" x="1764.9004" y="329.4437"/><rect fill="#F1F1F1" height="2" style="stroke:#181818;stroke-width:0.5;" width="4" x="1764.9004" y="333.4437"/><text fill="#000000" font-family="sans-serif" font-size="12" lengthAdjust="spacing" textLength="48.6504" x="1713.25" y="353.5824">JwtFilter</text></g><!--entity SecurityConfig--><g class="entity" data-qualified-name="security.SecurityConfig" data-source-line="17" id="ent0008"><rect fill="#F1F1F1" height="43.9688" rx="2.5" ry="2.5" style="stroke:#181818;stroke-width:0.5;" width="127.7793" x="1688.69" y="203.4838"/><rect fill="#F1F1F1" height="10" style="stroke:#181818;stroke-width:0.5;" width="15" x="1796.4693" y="208.4838"/><rect fill="#F1F1F1" height="2" style="stroke:#181818;stroke-width:0.5;" width="4" x="1794.4693" y="210.4838"/><rect fill="#F1F1F1" height="2" style="stroke:#181818;stroke-width:0.5;" width="4" x="1794.4693" y="214.4838"/><text fill="#000000" font-family="sans-serif" font-size="12" lengthAdjust="spacing" textLength="87.7793" x="1703.69" y="234.6224">SecurityConfig</text></g><!--entity JwtUtil--><g class="entity" data-qualified-name="security.JwtUtil" data-source-line="18" id="ent0009"><rect fill="#F1F1F1" height="43.9688" rx="2.5" ry="2.5" style="stroke:#181818;stroke-width:0.5;" width="78.2148" x="1690.47" y="477.4138"/><rect fill="#F1F1F1" height="10" style="stroke:#181818;stroke-width:0.5;" width="15" x="1748.6848" y="482.4138"/><rect fill="#F1F1F1" height="2" style="stroke:#181818;stroke-width:0.5;" width="4" x="1746.6848" y="484.4138"/><rect fill="#F1F1F1" height="2" style="stroke:#181818;stroke-width:0.5;" width="4" x="1746.6848" y="488.4138"/><text fill="#000000" font-family="sans-serif" font-size="12" lengthAdjust="spacing" textLength="38.2148" x="1705.47" y="508.5524">JwtUtil</text></g><!--entity DomainRecords--><g class="entity" data-qualified-name="logic.domain.DomainRecords" data-source-line="23" id="ent0012"><rect fill="#F1F1F1" height="43.9688" rx="2.5" ry="2.5" style="stroke:#181818;stroke-width:0.5;" width="135.0273" x="622.06" y="477.4138"/><rect fill="#F1F1F1" height="10" style="stroke:#181818;stroke-width:0.5;" width="15" x="737.0873" y="482.4138"/><rect fill="#F1F1F1" height="2" style="stroke:#181818;stroke-width:0.5;" width="4" x="735.0873" y="484.4138"/><rect fill="#F1F1F1" height="2" style="stroke:#181818;stroke-width:0.5;" width="4" x="735.0873" y="488.4138"/><text fill="#000000" font-family="sans-serif" font-size="12" lengthAdjust="spacing" textLength="95.0273" x="637.06" y="508.5524">DomainRecords</text></g><!--entity DomainInterfaces--><g class="entity" data-qualified-name="logic.domain.DomainInterfaces" data-source-line="24" id="ent0013"><rect fill="#F1F1F1" height="43.9688" rx="2.5" ry="2.5" style="stroke:#181818;stroke-width:0.5;" width="146.541" x="792.3" y="477.4138"/><rect fill="#F1F1F1" height="10" style="stroke:#181818;stroke-width:0.5;" width="15" x="918.841" y="482.4138"/><rect fill="#F1F1F1" height="2" style="stroke:#181818;stroke-width:0.5;" width="4" x="916.841" y="484.4138"/><rect fill="#F1F1F1" height="2" style="stroke:#181818;stroke-width:0.5;" width="4" x="916.841" y="488.4138"/><text fill="#000000" font-family="sans-serif" font-size="12" lengthAdjust="spacing" textLength="106.541" x="807.3" y="508.5524">DomainInterfaces</text></g><!--entity DomainExceptions--><g class="entity" data-qualified-name="logic.domain.DomainExceptions" data-source-line="25" id="ent0014"><rect fill="#F1F1F1" height="43.9688" rx="2.5" ry="2.5" style="stroke:#181818;stroke-width:0.5;" width="152.084" x="973.53" y="477.4138"/><rect fill="#F1F1F1" height="10" style="stroke:#181818;stroke-width:0.5;" width="15" x="1105.614" y="482.4138"/><rect fill="#F1F1F1" height="2" style="stroke:#181818;stroke-width:0.5;" width="4" x="1103.614" y="484.4138"/><rect fill="#F1F1F1" height="2" style="stroke:#181818;stroke-width:0.5;" width="4" x="1103.614" y="488.4138"/><text fill="#000000" font-family="sans-serif" font-size="12" lengthAdjust="spacing" textLength="112.084" x="988.53" y="508.5524">DomainExceptions</text></g><!--entity DataServices--><g class="entity" data-qualified-name="logic.service.DataServices" data-source-line="28" id="ent0016"><rect fill="#F1F1F1" height="43.9688" rx="2.5" ry="2.5" style="stroke:#181818;stroke-width:0.5;" width="119.2539" x="845.95" y="322.4437"/><rect fill="#F1F1F1" height="10" style="stroke:#181818;stroke-width:0.5;" width="15" x="945.2039" y="327.4437"/><rect fill="#F1F1F1" height="2" style="stroke:#181818;stroke-width:0.5;" width="4" x="943.2039" y="329.4437"/><rect fill="#F1F1F1" height="2" style="stroke:#181818;stroke-width:0.5;" width="4" x="943.2039" y="333.4437"/><text fill="#000000" font-family="sans-serif" font-size="12" lengthAdjust="spacing" textLength="79.2539" x="860.95" y="353.5824">DataServices</text></g><!--entity OrchestratingServices--><g class="entity" data-qualified-name="logic.service.OrchestratingServices" data-source-line="29" id="ent0017"><rect fill="#F1F1F1" height="43.9688" rx="2.5" ry="2.5" style="stroke:#181818;stroke-width:0.5;" width="173.0723" x="792.04" y="203.4838"/><rect fill="#F1F1F1" height="10" style="stroke:#181818;stroke-width:0.5;" width="15" x="945.1123" y="208.4838"/><rect fill="#F1F1F1" height="2" style="stroke:#181818;stroke-width:0.5;" width="4" x="943.1123" y="210.4838"/><rect fill="#F1F1F1" height="2" style="stroke:#181818;stroke-width:0.5;" width="4" x="943.1123" y="214.4838"/><text fill="#000000" font-family="sans-serif" font-size="12" lengthAdjust="spacing" textLength="133.0723" x="807.04" y="234.6224">OrchestratingServices</text></g><!--entity ServiceMappers--><g class="entity" data-qualified-name="logic.service.ServiceMappers" data-source-line="30" id="ent0018"><rect fill="#F1F1F1" height="43.9688" rx="2.5" ry="2.5" style="stroke:#181818;stroke-width:0.5;" width="135.8594" x="621.65" y="203.4838"/><rect fill="#F1F1F1" height="10" style="stroke:#181818;stroke-width:0.5;" width="15" x="737.5094" y="208.4838"/><rect fill="#F1F1F1" height="2" style="stroke:#181818;stroke-width:0.5;" width="4" x="735.5094" y="210.4838"/><rect fill="#F1F1F1" height="2" style="stroke:#181818;stroke-width:0.5;" width="4" x="735.5094" y="214.4838"/><text fill="#000000" font-family="sans-serif" font-size="12" lengthAdjust="spacing" textLength="95.8594" x="636.65" y="234.6224">ServiceMappers</text></g><!--entity JpaRepositories--><g class="entity" data-qualified-name="persistence.JpaRepositories" data-source-line="35" id="ent0020"><rect fill="#F1F1F1" height="43.9688" rx="2.5" ry="2.5" style="stroke:#181818;stroke-width:0.5;" width="132.7246" x="1205.21" y="477.4138"/><rect fill="#F1F1F1" height="10" style="stroke:#181818;stroke-width:0.5;" width="15" x="1317.9346" y="482.4138"/><rect fill="#F1F1F1" height="2" style="stroke:#181818;stroke-width:0.5;" width="4" x="1315.9346" y="484.4138"/><rect fill="#F1F1F1" height="2" style="stroke:#181818;stroke-width:0.5;" width="4" x="1315.9346" y="488.4138"/><text fill="#000000" font-family="sans-serif" font-size="12" lengthAdjust="spacing" textLength="92.7246" x="1220.21" y="508.5524">JpaRepositories</text></g><!--entity JpaEntities--><g class="entity" data-qualified-name="persistence.JpaEntities" data-source-line="36" id="ent0021"><rect fill="#F1F1F1" height="43.9688" rx="2.5" ry="2.5" style="stroke:#181818;stroke-width:0.5;" width="103.4102" x="1205.87" y="622.3838"/><rect fill="#F1F1F1" height="10" style="stroke:#181818;stroke-width:0.5;" width="15" x="1289.2802" y="627.3838"/><rect fill="#F1F1F1" height="2" style="stroke:#181818;stroke-width:0.5;" width="4" x="1287.2802" y="629.3838"/><rect fill="#F1F1F1" height="2" style="stroke:#181818;stroke-width:0.5;" width="4" x="1287.2802" y="633.3838"/><text fill="#000000" font-family="sans-serif" font-size="12" lengthAdjust="spacing" textLength="63.4102" x="1220.87" y="653.5224">JpaEntities</text></g><!--entity Specifications--><g class="entity" data-qualified-name="persistence.Specifications" data-source-line="37" id="ent0022"><rect fill="#F1F1F1" height="43.9688" rx="2.5" ry="2.5" style="stroke:#181818;stroke-width:0.5;" width="123.2969" x="1372.93" y="477.4138"/><rect fill="#F1F1F1" height="10" style="stroke:#181818;stroke-width:0.5;" width="15" x="1476.2269" y="482.4138"/><rect fill="#F1F1F1" height="2" style="stroke:#181818;stroke-width:0.5;" width="4" x="1474.2269" y="484.4138"/><rect fill="#F1F1F1" height="2" style="stroke:#181818;stroke-width:0.5;" width="4" x="1474.2269" y="488.4138"/><text fill="#000000" font-family="sans-serif" font-size="12" lengthAdjust="spacing" textLength="83.2969" x="1387.93" y="508.5524">Specifications</text></g><!--link Controller to OrchestratingServices--><g class="link" data-entity-1="ent0003" data-entity-2="ent0017" data-link-type="dependency" data-source-line="41" id="lnk23"><path d="M341.23,203.0637 C422.1,156.6938 620.82,59.5938 774.57,122.7238 C814.02,138.9238 843.021,173.2012 860.681,198.2312" fill="none" id="Controller-to-OrchestratingServices" style="stroke:#555555;stroke-width:1;"/><polygon fill="#555555" points="864.14,203.1337,862.2198,193.4739,861.2575,199.0483,855.6831,198.0859,864.14,203.1337" style="stroke:#555555;stroke-width:1;"/><text fill="#000000" font-family="sans-serif" font-size="12" lengthAdjust="spacing" textLength="26.8711" x="559.57" y="96.6224">calls</text></g><!--link Controller to DataServices--><g class="link" data-entity-1="ent0003" data-entity-2="ent0016" data-link-type="dependency" data-source-line="42" id="lnk24"><path d="M354.37,234.8737 C446.35,250.6038 649.02,286.1937 818.57,322.4437 C827.39,324.3338 830.8282,325.0749 839.9182,327.2049" fill="none" id="Controller-to-DataServices" style="stroke:#555555;stroke-width:1;"/><polygon fill="#555555" points="845.76,328.5738,837.9099,322.6259,840.8919,327.433,836.0848,330.415,845.76,328.5738" style="stroke:#555555;stroke-width:1;"/><text fill="#000000" font-family="sans-serif" font-size="12" lengthAdjust="spacing" textLength="26.8711" x="664.63" y="289.5824">calls</text></g><!--link Controller to DomainRecords--><g class="link" data-entity-1="ent0003" data-entity-2="ent0012" data-link-type="dependency" data-source-line="43" id="lnk25"><path d="M254.56,245.2338 C221.74,260.5338 181.5,285.6738 162.57,322.4437 C148.75,349.3038 143.48,367.0138 162.57,390.4138 C219.81,460.5638 486.6227,486.0035 615.6527,494.4135" fill="none" id="Controller-to-DomainRecords" style="stroke:#555555;stroke-width:1;"/><polygon fill="#555555" points="621.64,494.8038,612.9192,490.2269,616.6506,494.4785,612.3989,498.2099,621.64,494.8038" style="stroke:#555555;stroke-width:1;"/><text fill="#000000" font-family="sans-serif" font-size="12" lengthAdjust="spacing" textLength="103.1484" x="163.57" y="349.0724">receives / passes</text></g><!--link DtoMapper to DomainRecords--><g class="link" data-entity-1="ent0005" data-entity-2="ent0012" data-link-type="dependency" data-source-line="44" id="lnk26"><path d="M122.1,247.7838 C93.93,263.9538 59.85,289.1038 43.57,322.4437 C30.32,349.5938 24.33,367.1337 43.57,390.4138 C44.66,391.7238 161.9,413.1238 163.57,413.4138 C327.77,442.4138 515.5894,471.7936 615.8694,487.1836" fill="none" id="DtoMapper-to-DomainRecords" style="stroke:#555555;stroke-width:1;"/><polygon fill="#555555" points="621.8,488.0938,613.5109,482.7748,616.8579,487.3353,612.2974,490.6822,621.8,488.0938" style="stroke:#555555;stroke-width:1;"/><text fill="#000000" font-family="sans-serif" font-size="12" lengthAdjust="spacing" textLength="97.6113" x="44.57" y="349.0724">converts to DTO</text></g><!--link DtoMapper to DTO--><g class="link" data-entity-1="ent0005" data-entity-2="ent0004" data-link-type="dependency" data-source-line="45" id="lnk27"><path d="M194.45,247.9138 C221.88,269.0238 258.7554,297.394 286.1154,318.454" fill="none" id="DtoMapper-to-DTO" style="stroke:#555555;stroke-width:1;"/><polygon fill="#555555" points="290.87,322.1138,286.178,313.4544,286.9078,319.0639,281.2983,319.7938,290.87,322.1138" style="stroke:#555555;stroke-width:1;"/><text fill="#000000" font-family="sans-serif" font-size="12" lengthAdjust="spacing" textLength="55.3477" x="252.68" y="289.5824">produces</text></g><!--link DataServices to DomainRecords--><g class="link" data-entity-1="ent0016" data-entity-2="ent0012" data-link-type="dependency" data-source-line="48" id="lnk28"><path d="M863.77,366.7537 C837.33,380.9437 802.92,400.7138 774.57,421.4138 C751.26,438.4437 731.3751,456.684 714.7951,472.934" fill="none" id="DataServices-to-DomainRecords" style="stroke:#555555;stroke-width:1;"/><polygon fill="#555555" points="710.51,477.1337,719.7375,473.6908,714.0809,473.6339,714.1378,467.9774,710.51,477.1337" style="stroke:#555555;stroke-width:1;"/><text fill="#000000" font-family="sans-serif" font-size="12" lengthAdjust="spacing" textLength="43.418" x="806.52" y="410.5524">returns</text></g><!--link DataServices to DomainInterfaces--><g class="link" data-entity-1="ent0016" data-entity-2="ent0013" data-link-type="dependency" data-source-line="49" id="lnk29"><path d="M900.01,366.7038 C892.37,395.9238 880.2284,442.3791 872.6084,471.5091" fill="none" id="DataServices-to-DomainInterfaces" style="stroke:#555555;stroke-width:1;"/><polygon fill="#555555" points="871.09,477.3138,877.2374,469.619,872.3554,472.4765,869.4978,467.5944,871.09,477.3138" style="stroke:#555555;stroke-width:1;"/><text fill="#000000" font-family="sans-serif" font-size="12" lengthAdjust="spacing" textLength="46.5059" x="892.49" y="410.5524">accepts</text></g><!--link OrchestratingServices to DomainRecords--><g class="link" data-entity-1="ent0017" data-entity-2="ent0012" data-link-type="dependency" data-source-line="50" id="lnk30"><path d="M853.94,247.6438 C833.48,266.0538 804.45,294.1438 783.57,322.4437 C745.65,373.8738 715.9552,437.0626 700.9952,471.4226" fill="none" id="OrchestratingServices-to-DomainRecords" style="stroke:#555555;stroke-width:1;"/><polygon fill="#555555" points="698.6,476.9238,705.8602,470.2687,700.596,472.3394,698.5253,467.0752,698.6,476.9238" style="stroke:#555555;stroke-width:1;"/><text fill="#000000" font-family="sans-serif" font-size="12" lengthAdjust="spacing" textLength="43.418" x="784.57" y="349.0724">returns</text></g><!--link OrchestratingServices to DataServices--><g class="link" data-entity-1="ent0017" data-entity-2="ent0016" data-link-type="dependency" data-source-line="51" id="lnk31"><path d="M883.53,247.9138 C888.4,269.0238 894.4408,295.2074 899.3008,316.2674" fill="none" id="OrchestratingServices-to-DataServices" style="stroke:#555555;stroke-width:1;"/><polygon fill="#555555" points="900.65,322.1138,902.5238,312.4448,899.5257,317.2418,894.7287,314.2437,900.65,322.1138" style="stroke:#555555;stroke-width:1;"/><text fill="#000000" font-family="sans-serif" font-size="12" lengthAdjust="spacing" textLength="59.0273" x="894.69" y="289.5824">delegates</text></g><!--link DataServices to JpaRepositories--><g class="link" data-entity-1="ent0016" data-entity-2="ent0020" data-link-type="dependency" data-source-line="54" id="lnk32"><path d="M965.64,349.3238 C1044.92,355.5037 1179.09,369.8938 1218.57,398.4138 C1245.01,417.5138 1257.7448,448.1312 1264.6248,471.3412" fill="none" id="DataServices-to-JpaRepositories" style="stroke:#555555;stroke-width:1;"/><polygon fill="#555555" points="1266.33,477.0938,1267.6073,467.3281,1264.909,472.2999,1259.9371,469.6017,1266.33,477.0938" style="stroke:#555555;stroke-width:1;"/><text fill="#000000" font-family="sans-serif" font-size="12" lengthAdjust="spacing" textLength="44.5078" x="1235.07" y="410.5524">queries</text></g><!--link DataServices to JpaEntities--><g class="link" data-entity-1="ent0016" data-entity-2="ent0021" data-link-type="dependency" data-source-line="55" id="lnk33"><path d="M965.56,352.6638 C1118.52,371.1538 1511.31,418.8438 1513.57,421.4138 C1557.1,470.7138 1553.1,516.8238 1513.57,569.3838 C1489.07,601.9738 1382.8913,623.785 1315.4113,634.825" fill="none" id="DataServices-to-JpaEntities" style="stroke:#555555;stroke-width:1;"/><polygon fill="#555555" points="1309.49,635.7938,1319.0177,638.2882,1314.4244,634.9865,1317.7261,630.3931,1309.49,635.7938" style="stroke:#555555;stroke-width:1;"/><text fill="#000000" font-family="sans-serif" font-size="12" lengthAdjust="spacing" textLength="87.9961" x="1545.74" y="504.0424">uses internally</text></g><!--link ServiceMappers to JpaEntities--><g class="link" data-entity-1="ent0018" data-entity-2="ent0021" data-link-type="dependency" data-source-line="56" id="lnk34"><path d="M621.31,233.7338 C561.66,243.7038 476.92,267.2138 426.57,322.4437 C398.69,353.0438 388.46,376.1937 406.57,413.4138 C455.76,514.4538 501.82,526.2238 605.57,569.3838 C714.04,614.5038 1064.9464,634.6659 1199.5664,640.9059" fill="none" id="ServiceMappers-to-JpaEntities" style="stroke:#555555;stroke-width:1;"/><polygon fill="#555555" points="1205.56,641.1838,1196.7549,636.7713,1200.5654,640.9522,1196.3844,644.7627,1205.56,641.1838" style="stroke:#555555;stroke-width:1;"/><text fill="#000000" font-family="sans-serif" font-size="12" lengthAdjust="spacing" textLength="33.5391" x="407.57" y="410.5524">reads</text></g><!--link ServiceMappers to DomainRecords--><g class="link" data-entity-1="ent0018" data-entity-2="ent0012" data-link-type="dependency" data-source-line="57" id="lnk35"><path d="M682.61,247.9038 C676.73,267.1738 668.79,296.3638 665.57,322.4437 C661.88,352.4338 662.28,360.3837 665.57,390.4138 C668.93,420.9638 675.8704,449.7181 681.8104,471.3381" fill="none" id="ServiceMappers-to-DomainRecords" style="stroke:#555555;stroke-width:1;"/><polygon fill="#555555" points="683.4,477.1238,684.8727,467.3856,682.0754,472.3024,677.1586,469.5051,683.4,477.1238" style="stroke:#555555;stroke-width:1;"/><text fill="#000000" font-family="sans-serif" font-size="12" lengthAdjust="spacing" textLength="55.3477" x="666.57" y="349.0724">produces</text></g><!--link Specifications to JpaEntities--><g class="link" data-entity-1="ent0022" data-entity-2="ent0021" data-link-type="dependency" data-source-line="58" id="lnk36"><path d="M1411.1,521.6737 C1395.58,535.5538 1374.65,553.8838 1355.57,569.3838 C1333.07,587.6637 1311.6508,603.8451 1291.9808,618.3351" fill="none" id="Specifications-to-JpaEntities" style="stroke:#555555;stroke-width:1;"/><polygon fill="#555555" points="1287.15,621.8938,1296.7686,619.7763,1291.1756,618.9282,1292.0237,613.3353,1287.15,621.8938" style="stroke:#555555;stroke-width:1;"/><text fill="#000000" font-family="sans-serif" font-size="12" lengthAdjust="spacing" textLength="34.166" x="1346.19" y="589.5224">filters</text></g><!--link JwtFilter to JwtUtil--><g class="link" data-entity-1="ent0007" data-entity-2="ent0009" data-link-type="dependency" data-source-line="61" id="lnk37"><path d="M1740.77,366.7038 C1738.28,395.9238 1734.3469,442.2052 1731.8769,471.3352" fill="none" id="JwtFilter-to-JwtUtil" style="stroke:#555555;stroke-width:1;"/><polygon fill="#555555" points="1731.37,477.3138,1736.1161,468.6839,1731.7924,472.3316,1728.1447,468.008,1731.37,477.3138" style="stroke:#555555;stroke-width:1;"/><text fill="#000000" font-family="sans-serif" font-size="12" lengthAdjust="spacing" textLength="92.2324" x="1739" y="410.5524">validates token</text></g><!--link SecurityConfig to JwtFilter--><g class="link" data-entity-1="ent0008" data-entity-2="ent0007" data-link-type="dependency" data-source-line="62" id="lnk38"><path d="M1750.74,247.9138 C1748.94,269.0238 1746.711,295.0755 1744.911,316.1355" fill="none" id="SecurityConfig-to-JwtFilter" style="stroke:#555555;stroke-width:1;"/><polygon fill="#555555" points="1744.4,322.1138,1749.1519,313.4871,1744.8258,317.1319,1741.181,312.8058,1744.4,322.1138" style="stroke:#555555;stroke-width:1;"/><text fill="#000000" font-family="sans-serif" font-size="12" lengthAdjust="spacing" textLength="52.793" x="1749.17" y="289.5824">registers</text></g><!--link SecurityConfig to DataServices--><g class="link" data-entity-1="ent0008" data-entity-2="ent0016" data-link-type="dependency" data-source-line="63" id="lnk39"><path d="M1688.22,235.3538 C1529.26,257.3038 1125.7536,313.023 971.5036,334.323" fill="none" id="SecurityConfig-to-DataServices" style="stroke:#555555;stroke-width:1;"/><polygon fill="#555555" points="965.56,335.1438,975.0226,337.875,970.513,334.4598,973.9282,329.9502,965.56,335.1438" style="stroke:#555555;stroke-width:1;"/><text fill="#000000" font-family="sans-serif" font-size="12" lengthAdjust="spacing" textLength="148.834" x="1380.79" y="289.5824">wires UserDetailsService</text></g><!--link Controller to JpaEntities--><g class="link" data-entity-1="ent0003" data-entity-2="ent0021" data-link-type="dependency" data-source-line="66" id="lnk40"><path d="M254.46,242.7638 C174.61,268.8538 27.07,317.5637 23.57,322.4437 C6,347.0238 7.39,364.9038 23.57,390.4138 C123.58,548.0538 223.78,519.1637 403.57,569.3838 C555.95,611.9538 1038.3449,634.6004 1199.4649,641.1404" fill="none" id="Controller-to-JpaEntities" style="stroke:#FF0000;stroke-width:1;stroke-dasharray:7,7;"/><polygon fill="#FF0000" points="1205.46,641.3838,1196.6296,637.022,1200.4641,641.181,1196.3052,645.0154,1205.46,641.3838" style="stroke:#FF0000;stroke-width:1;"/><text fill="#000000" font-family="sans-serif" font-size="12" lengthAdjust="spacing" textLength="71.4961" x="38.43" y="410.5524">FORBIDDEN</text></g><!--link Controller to JpaRepositories--><g class="link" data-entity-1="ent0003" data-entity-2="ent0020" data-link-type="dependency" data-source-line="67" id="lnk41"><path d="M324.7,247.7038 C361.66,285.0138 444.68,361.1538 532.57,390.4138 C554.45,397.7038 924.57,396.8338 947.57,398.4138 C1034.2,404.3738 1059.33,393.5838 1141.57,421.4138 C1179.34,434.1937 1213.2034,455.4622 1238.4534,473.4522" fill="none" id="Controller-to-JpaRepositories" style="stroke:#FF0000;stroke-width:1;stroke-dasharray:7,7;"/><polygon fill="#FF0000" points="1243.34,476.9338,1238.3312,468.4537,1239.2678,474.0324,1233.6891,474.9691,1243.34,476.9338" style="stroke:#FF0000;stroke-width:1;"/><text fill="#000000" font-family="sans-serif" font-size="12" lengthAdjust="spacing" textLength="71.4961" x="533.57" y="349.0724">FORBIDDEN</text></g><!--link OrchestratingServices to JpaRepositories--><g class="link" data-entity-1="ent0017" data-entity-2="ent0020" data-link-type="dependency" data-source-line="68" id="lnk42"><path d="M965.5,230.7838 C1083.55,237.5637 1282.48,252.5537 1304.57,277.4437 C1355.03,334.3038 1311.8189,428.3828 1287.4189,471.8128" fill="none" id="OrchestratingServices-to-JpaRepositories" style="stroke:#FF0000;stroke-width:1;stroke-dasharray:7,7;"/><polygon fill="#FF0000" points="1284.48,477.0438,1292.3756,471.1566,1286.9291,472.6846,1285.401,467.2381,1284.48,477.0438" style="stroke:#FF0000;stroke-width:1;"/><text fill="#000000" font-family="sans-serif" font-size="12" lengthAdjust="spacing" textLength="71.4961" x="1328.21" y="349.0724">FORBIDDEN</text></g><!--link DomainRecords to JpaEntities--><g class="link" data-entity-1="ent0012" data-entity-2="ent0021" data-link-type="dependency" data-source-line="69" id="lnk43"><path d="M709.45,521.7638 C725.45,537.5738 749.38,558.2238 774.57,569.3838 C920.98,634.2238 1108.0601,643.6316 1199.4001,644.1216" fill="none" id="DomainRecords-to-JpaEntities" style="stroke:#FF0000;stroke-width:1;stroke-dasharray:7,7;"/><polygon fill="#FF0000" points="1205.4,644.1538,1196.4216,640.1055,1200.4001,644.1269,1196.3787,648.1054,1205.4,644.1538" style="stroke:#FF0000;stroke-width:1;"/><text fill="#000000" font-family="sans-serif" font-size="12" lengthAdjust="spacing" textLength="71.4961" x="824.69" y="589.5224">FORBIDDEN</text></g><!--link DomainRecords to DTO--><g class="link" data-entity-1="ent0012" data-entity-2="ent0004" data-link-type="dependency" data-source-line="70" id="lnk44"><path d="M637.77,477.0438 C560.36,445.1238 422.1969,388.1611 357.3769,361.4311" fill="none" id="DomainRecords-to-DTO" style="stroke:#FF0000;stroke-width:1;stroke-dasharray:7,7;"/><polygon fill="#FF0000" points="351.83,359.1438,358.6254,366.2727,356.4524,361.0499,361.6752,358.8769,351.83,359.1438" style="stroke:#FF0000;stroke-width:1;"/><text fill="#000000" font-family="sans-serif" font-size="12" lengthAdjust="spacing" textLength="71.4961" x="482.86" y="410.5524">FORBIDDEN</text></g><?plantuml-src bLLTJzim57tFhxY2Xu4qoa12GvK00KaafcqWEgH9h0_6kSskC7Pck-swYVy-ErzDGfjsVebyFywrpps-iMG5mXrQBaZITpY0EyQVMOhmcIrGGuWPoWGb9pG_v1uJGiqnWOE3Ss0oWOdIJvGuFmm6vw0nsGy2yqmoOvgzG5P0ZUp2rT38BPEfm4R0fTPgVgs4qh1xag-6ipp8bT89wZBeD5-De0GdR2fihAGTqH-4e-CWACl2pXoVTc0tleokeu_mDm1ul7PnMWc1UkotuRVRuclL5vPbtlhQo3V8fvhime54KHJ6KG7oQMvZ4hR469L13df2wRWCUB0asc12fSIBuqJXPOvK-nBrmaXwPnoVHgUvqnyhDzyZTnIOSTDs8rtv2UFODaU_EMQMbCpDhyqI1lMCE1OrZiCFTGrcsQZmLLYtclz4OpMp9DEEhzmMR9LLchVqLZBM2SQNYexYawXYBMFtc2b3LcagyBmjafPijHzbo6b2d9LtSCZluEpi35mduUBY0d8IlILejXBgvNMvvlmm1ExaQ_eoMsGiVLkbjdhLJ7N2HvgXWKFN3MFGmIpr1bl3S2LdgAq1gy3fjXV4oHfMh25aMYLJTxcArvpFmr8RIuOF2q4MHAyaPUETxLHBipcv8UGwcN6lOfUyff4zjHkLUvDNzddefed0bDa-VXe2XptofvTCl8ToCEvlegpx2fQrVqtHMpOary-btTUfanLKfn6BeFjEjmBHo1BJbxg-txMkkazugyAJV9hMf5TZj-1oEMsxCg_6x5kPpvYWnFVHFPPdb45tIBT1tiANTAI-qThqfQ-V67FIhlw3qqw8bf4mPLXro-MlS_qu0nWyxhg_wdYmahyXnBVtLpTX67tT4g2ZlHR0cWUpFS0QUVHUuNyHLeos9i8_?></g></svg>