<?plantuml 1.2026.2?><svg xmlns="http://www.w3.org/2000/svg" xmlns:xlink="http://www.w3.org/1999/xlink" contentStyleType="text/css" data-diagram-type="SEQUENCE" height="1183px" preserveAspectRatio="none" style="width:1506px;height:1183px;background:#FFFFFF;" version="1.1" viewBox="0 0 1506 1183" width="1506px" zoomAndPan="magnify"><title>POST /owner/appointments ??? Booking Flow</title><defs/><g><text fill="#000000" font-family="sans-serif" font-size="14" font-weight="bold" lengthAdjust="spacing" textLength="355.3594" x="577.0095" y="27.9951">POST /owner/appointments ??? Booking Flow</text><rect fill="none" height="119.6641" style="stroke:#000000;stroke-width:1.5;" width="1077.1938" x="10" y="483.3203"/><rect fill="none" height="119.6641" style="stroke:#000000;stroke-width:1.5;" width="1176.6147" x="10" y="704.3828"/><g class="participant-lifeline" data-entity-uid="part1" data-qualified-name="Client" id="part1-lifeline"><g><title>Client</title><rect fill="#000000" fill-opacity="0.00000" height="983.6484" width="8" x="39.2651" y="118.5938"/><line style="stroke:#181818;stroke-width:0.5;stroke-dasharray:5,5;" x1="43" x2="43" y1="118.5938" y2="1102.2422"/></g></g><g class="participant-lifeline" data-entity-uid="part2" data-qualified-name="jwt" id="part2-lifeline"><g><title>JwtFilter</title><rect fill="#000000" fill-opacity="0.00000" height="983.6484" width="8" x="265.1523" y="118.5938"/><line style="stroke:#181818;stroke-width:0.5;stroke-dasharray:5,5;" x1="268.7729" x2="268.7729" y1="118.5938" y2="1102.2422"/></g></g><g class="participant-lifeline" data-entity-uid="part3" data-qualified-name="ctrl" id="part3-lifeline"><g><title>OwnerAppointments</title><rect fill="#000000" fill-opacity="0.00000" height="983.6484" width="8" x="452.1323" y="118.5938"/><line style="stroke:#181818;stroke-width:0.5;stroke-dasharray:5,5;" x1="455.2388" x2="455.2388" y1="118.5938" y2="1102.2422"/></g></g><g class="participant-lifeline" data-entity-uid="part4" data-qualified-name="oas" id="part4-lifeline"><g><title>OwnerAppointment</title><rect fill="#000000" fill-opacity="0.00000" height="983.6484" width="8" x="740.3726" y="118.5938"/><line style="stroke:#181818;stroke-width:0.5;stroke-dasharray:5,5;" x1="744.126" x2="744.126" y1="118.5938" y2="1102.2422"/></g></g><g class="participant-lifeline" data-entity-uid="part5" data-qualified-name="ps" id="part5-lifeline"><g><title>PetService</title><rect fill="#000000" fill-opacity="0.00000" height="983.6484" width="8" x="1029.0508" y="118.5938"/><line style="stroke:#181818;stroke-width:0.5;stroke-dasharray:5,5;" x1="1032.9077" x2="1032.9077" y1="118.5938" y2="1102.2422"/></g></g><g class="participant-lifeline" data-entity-uid="part6" data-qualified-name="vs" id="part6-lifeline"><g><title>VetService</title><rect fill="#000000" fill-opacity="0.00000" height="983.6484" width="8" x="1127.9043" y="118.5938"/><line style="stroke:#181818;stroke-width:0.5;stroke-dasharray:5,5;" x1="1131.1938" x2="1131.1938" y1="118.5938" y2="1102.2422"/></g></g><g class="participant-lifeline" data-entity-uid="part7" data-qualified-name="as" id="part7-lifeline"><g><title>AppointmentService</title><rect fill="#000000" fill-opacity="0.00000" height="983.6484" width="8" x="1260.876" y="118.5938"/><line style="stroke:#181818;stroke-width:0.5;stroke-dasharray:5,5;" x1="1264.6147" x2="1264.6147" y1="118.5938" y2="1102.2422"/></g></g><g class="participant-lifeline" data-entity-uid="part8" data-qualified-name="db" id="part8-lifeline"><g><title>Database</title><rect fill="#000000" fill-opacity="0.00000" height="983.6484" width="8" x="1464.978" y="118.5938"/><line style="stroke:#181818;stroke-width:0.5;stroke-dasharray:5,5;" x1="1468.5776" x2="1468.5776" y1="118.5938" y2="1102.2422"/></g></g><g class="participant participant-head" data-entity-uid="part1" data-qualified-name="Client" id="part1-head"><text fill="#000000" font-family="sans-serif" font-size="14" lengthAdjust="spacing" textLength="40.5303" x="20" y="115.292">Client</text><ellipse cx="43.2651" cy="50.7969" fill="#E2E2F0" rx="8" ry="8" style="stroke:#181818;stroke-width:0.5;"/><path d="M43.2651,58.7969 L43.2651,85.7969 M30.2651,66.7969 L56.2651,66.7969 M43.2651,85.7969 L30.2651,100.7969 M43.2651,85.7969 L56.2651,100.7969" fill="none" style="stroke:#181818;stroke-width:0.5;"/></g><g class="participant participant-tail" data-entity-uid="part1" data-qualified-name="Client" id="part1-tail"><text fill="#000000" font-family="sans-serif" font-size="14" lengthAdjust="spacing" textLength="40.5303" x="20" y="1114.2373">Client</text><ellipse cx="43.2651" cy="1126.0391" fill="#E2E2F0" rx="8" ry="8" style="stroke:#181818;stroke-width:0.5;"/><path d="M43.2651,1134.0391 L43.2651,1161.0391 M30.2651,1142.0391 L56.2651,1142.0391 M43.2651,1161.0391 L30.2651,1176.0391 M43.2651,1161.0391 L56.2651,1176.0391" fill="none" style="stroke:#181818;stroke-width:0.5;"/></g><g class="participant participant-head" data-entity-uid="part2" data-qualified-name="jwt" id="part2-head"><rect fill="#EEEDFE" height="30.2969" rx="2.5" ry="2.5" style="stroke:#181818;stroke-width:0.5;" width="70.7588" x="233.7729" y="87.2969"/><text fill="#000000" font-family="sans-serif" font-size="14" lengthAdjust="spacing" textLength="56.7588" x="240.7729" y="107.292">JwtFilter</text></g><g class="participant participant-tail" data-entity-uid="part2" data-qualified-name="jwt" id="part2-tail"><rect fill="#EEEDFE" height="30.2969" rx="2.5" ry="2.5" style="stroke:#181818;stroke-width:0.5;" width="70.7588" x="233.7729" y="1101.2422"/><text fill="#000000" font-family="sans-serif" font-size="14" lengthAdjust="spacing" textLength="56.7588" x="240.7729" y="1121.2373">JwtFilter</text></g><g class="participant participant-head" data-entity-uid="part3" data-qualified-name="ctrl" id="part3-head"><rect fill="#FAECE7" height="46.5938" rx="2.5" ry="2.5" style="stroke:#181818;stroke-width:0.5;" width="157.7871" x="377.2388" y="71"/><text fill="#000000" font-family="sans-serif" font-size="14" lengthAdjust="spacing" textLength="143.7871" x="384.2388" y="90.9951">OwnerAppointments</text><text fill="#000000" font-family="sans-serif" font-size="14" lengthAdjust="spacing" textLength="69.1729" x="421.5459" y="107.292">Controller</text></g><g class="participant participant-tail" data-entity-uid="part3" data-qualified-name="ctrl" id="part3-tail"><rect fill="#FAECE7" height="46.5938" rx="2.5" ry="2.5" style="stroke:#181818;stroke-width:0.5;" width="157.7871" x="377.2388" y="1101.2422"/><text fill="#000000" font-family="sans-serif" font-size="14" lengthAdjust="spacing" textLength="143.7871" x="384.2388" y="1121.2373">OwnerAppointments</text><text fill="#000000" font-family="sans-serif" font-size="14" lengthAdjust="spacing" textLength="69.1729" x="421.5459" y="1137.5342">Controller</text></g><g class="participant participant-head" data-entity-uid="part4" data-qualified-name="oas" id="part4-head"><rect fill="#FAEEDA" height="46.5938" rx="2.5" ry="2.5" style="stroke:#181818;stroke-width:0.5;" width="150.4932" x="669.126" y="71"/><text fill="#000000" font-family="sans-serif" font-size="14" lengthAdjust="spacing" textLength="136.4932" x="676.126" y="90.9951">OwnerAppointment</text><text fill="#000000" font-family="sans-serif" font-size="14" lengthAdjust="spacing" textLength="51.7412" x="718.502" y="107.292">Service</text></g><g class="participant participant-tail" data-entity-uid="part4" data-qualified-name="oas" id="part4-tail"><rect fill="#FAEEDA" height="46.5938" rx="2.5" ry="2.5" style="stroke:#181818;stroke-width:0.5;" width="150.4932" x="669.126" y="1101.2422"/><text fill="#000000" font-family="sans-serif" font-size="14" lengthAdjust="spacing" textLength="136.4932" x="676.126" y="1121.2373">OwnerAppointment</text><text fill="#000000" font-family="sans-serif" font-size="14" lengthAdjust="spacing" textLength="51.7412" x="718.502" y="1137.5342">Service</text></g><g class="participant participant-head" data-entity-uid="part5" data-qualified-name="ps" id="part5-head"><rect fill="#FAEEDA" height="30.2969" rx="2.5" ry="2.5" style="stroke:#181818;stroke-width:0.5;" width="88.2861" x="988.9077" y="87.2969"/><text fill="#000000" font-family="sans-serif" font-size="14" lengthAdjust="spacing" textLength="74.2861" x="995.9077" y="107.292">PetService</text></g><g class="participant participant-tail" data-entity-uid="part5" data-qualified-name="ps" id="part5-tail"><rect fill="#FAEEDA" height="30.2969" rx="2.5" ry="2.5" style="stroke:#181818;stroke-width:0.5;" width="88.2861" x="988.9077" y="1101.2422"/><text fill="#000000" font-family="sans-serif" font-size="14" lengthAdjust="spacing" textLength="74.2861" x="995.9077" y="1121.2373">PetService</text></g><g class="participant participant-head" data-entity-uid="part6" data-qualified-name="vs" id="part6-head"><rect fill="#FAEEDA" height="30.2969" rx="2.5" ry="2.5" style="stroke:#181818;stroke-width:0.5;" width="89.4209" x="1087.1938" y="87.2969"/><text fill="#000000" font-family="sans-serif" font-size="14" lengthAdjust="spacing" textLength="75.4209" x="1094.1938" y="107.292">VetService</text></g><g class="participant participant-tail" data-entity-uid="part6" data-qualified-name="vs" id="part6-tail"><rect fill="#FAEEDA" height="30.2969" rx="2.5" ry="2.5" style="stroke:#181818;stroke-width:0.5;" width="89.4209" x="1087.1938" y="1101.2422"/><text fill="#000000" font-family="sans-serif" font-size="14" lengthAdjust="spacing" textLength="75.4209" x="1094.1938" y="1121.2373">VetService</text></g><g class="participant participant-head" data-entity-uid="part7" data-qualified-name="as" id="part7-head"><rect fill="#FAEEDA" height="30.2969" rx="2.5" ry="2.5" style="stroke:#181818;stroke-width:0.5;" width="156.5225" x="1186.6147" y="87.2969"/><text fill="#000000" font-family="sans-serif" font-size="14" lengthAdjust="spacing" textLength="142.5225" x="1193.6147" y="107.292">AppointmentService</text></g><g class="participant participant-tail" data-entity-uid="part7" data-qualified-name="as" id="part7-tail"><rect fill="#FAEEDA" height="30.2969" rx="2.5" ry="2.5" style="stroke:#181818;stroke-width:0.5;" width="156.5225" x="1186.6147" y="1101.2422"/><text fill="#000000" font-family="sans-serif" font-size="14" lengthAdjust="spacing" textLength="142.5225" x="1193.6147" y="1121.2373">AppointmentService</text></g><g class="participant participant-head" data-entity-uid="part8" data-qualified-name="db" id="part8-head"><text fill="#000000" font-family="sans-serif" font-size="14" lengthAdjust="spacing" textLength="66.8008" x="1432.5776" y="115.292">Database</text><path d="M1450.978,66.2969 C1450.978,56.2969 1468.978,56.2969 1468.978,56.2969 C1468.978,56.2969 1486.978,56.2969 1486.978,66.2969 L1486.978,92.2969 C1486.978,102.2969 1468.978,102.2969 1468.978,102.2969 C1468.978,102.2969 1450.978,102.2969 1450.978,92.2969 L1450.978,66.2969" fill="#E1F5EE" style="stroke:#181818;stroke-width:0.5;"/><path d="M1450.978,66.2969 C1450.978,76.2969 1468.978,76.2969 1468.978,76.2969 C1468.978,76.2969 1486.978,76.2969 1486.978,66.2969" fill="none" style="stroke:#181818;stroke-width:0.5;"/></g><g class="participant participant-tail" data-entity-uid="part8" data-qualified-name="db" id="part8-tail"><text fill="#000000" font-family="sans-serif" font-size="14" lengthAdjust="spacing" textLength="66.8008" x="1432.5776" y="1114.2373">Database</text><path d="M1450.978,1127.5391 C1450.978,1117.5391 1468.978,1117.5391 1468.978,1117.5391 C1468.978,1117.5391 1486.978,1117.5391 1486.978,1127.5391 L1486.978,1153.5391 C1486.978,1163.5391 1468.978,1163.5391 1468.978,1163.5391 C1468.978,1163.5391 1450.978,1163.5391 1450.978,1153.5391 L1450.978,1127.5391" fill="#E1F5EE" style="stroke:#181818;stroke-width:0.5;"/><path d="M1450.978,1127.5391 C1450.978,1137.5391 1468.978,1137.5391 1468.978,1137.5391 C1468.978,1137.5391 1486.978,1137.5391 1486.978,1127.5391" fill="none" style="stroke:#181818;stroke-width:0.5;"/></g><g class="message" data-entity-1="part1" data-entity-2="part2" id="msg1"><polygon fill="#181818" points="257.1523,175.9922,267.1523,179.9922,257.1523,183.9922,261.1523,179.9922" style="stroke:#181818;stroke-width:1;"/><line style="stroke:#181818;stroke-width:1;" x1="43.2651" x2="263.1523" y1="179.9922" y2="179.9922"/><text fill="#000000" font-family="sans-serif" font-size="13" lengthAdjust="spacing" textLength="177.4678" x="50.2651" y="144.6606">POST /owner/appointments</text><text fill="#000000" font-family="sans-serif" font-size="13" lengthAdjust="spacing" textLength="201.8872" x="50.2651" y="159.7935">Authorization: Bearer &lt;token&gt;</text><text fill="#000000" font-family="sans-serif" font-size="13" lengthAdjust="spacing" textLength="191.75" x="50.2651" y="174.9263">Body: {vetId, petId, startsAt}</text></g><g class="message" data-entity-1="part2" data-entity-2="part2" id="msg2"><line style="stroke:#181818;stroke-width:1;" x1="269.1523" x2="311.1523" y1="224.2578" y2="224.2578"/><line style="stroke:#181818;stroke-width:1;" x1="311.1523" x2="311.1523" y1="224.2578" y2="237.2578"/><line style="stroke:#181818;stroke-width:1;" x1="270.1523" x2="311.1523" y1="237.2578" y2="237.2578"/><polygon fill="#181818" points="280.1523,233.2578,270.1523,237.2578,280.1523,241.2578,276.1523,237.2578" style="stroke:#181818;stroke-width:1;"/><text fill="#000000" font-family="sans-serif" font-size="13" lengthAdjust="spacing" textLength="158.7993" x="276.1523" y="204.0591">validate token signature</text><text fill="#000000" font-family="sans-serif" font-size="13" lengthAdjust="spacing" textLength="172.98" x="276.1523" y="219.1919">extract username + scope</text></g><g class="message" data-entity-1="part2" data-entity-2="part2" id="msg3"><line style="stroke:#181818;stroke-width:1;" x1="269.1523" x2="311.1523" y1="281.5234" y2="281.5234"/><line style="stroke:#181818;stroke-width:1;" x1="311.1523" x2="311.1523" y1="281.5234" y2="294.5234"/><line style="stroke:#181818;stroke-width:1;" x1="270.1523" x2="311.1523" y1="294.5234" y2="294.5234"/><polygon fill="#181818" points="280.1523,290.5234,270.1523,294.5234,280.1523,298.5234,276.1523,294.5234" style="stroke:#181818;stroke-width:1;"/><text fill="#000000" font-family="sans-serif" font-size="13" lengthAdjust="spacing" textLength="128.54" x="276.1523" y="261.3247">set SecurityContext</text><text fill="#000000" font-family="sans-serif" font-size="13" lengthAdjust="spacing" textLength="101.4229" x="276.1523" y="276.4575">(ROLE_OWNER)</text></g><g class="message" data-entity-1="part2" data-entity-2="part3" id="msg4"><polygon fill="#181818" points="444.1323,319.6563,454.1323,323.6563,444.1323,327.6563,448.1323,323.6563" style="stroke:#181818;stroke-width:1;"/><line style="stroke:#181818;stroke-width:1;" x1="269.1523" x2="450.1323" y1="323.6563" y2="323.6563"/><text fill="#000000" font-family="sans-serif" font-size="13" lengthAdjust="spacing" textLength="103.9048" x="276.1523" y="318.5903">forward request</text></g><g class="message" data-entity-1="part3" data-entity-2="part3" id="msg5"><line style="stroke:#181818;stroke-width:1;" x1="456.1323" x2="498.1323" y1="367.9219" y2="367.9219"/><line style="stroke:#181818;stroke-width:1;" x1="498.1323" x2="498.1323" y1="367.9219" y2="380.9219"/><line style="stroke:#181818;stroke-width:1;" x1="457.1323" x2="498.1323" y1="380.9219" y2="380.9219"/><polygon fill="#181818" points="467.1323,376.9219,457.1323,380.9219,467.1323,384.9219,463.1323,380.9219" style="stroke:#181818;stroke-width:1;"/><text fill="#000000" font-family="sans-serif" font-size="13" lengthAdjust="spacing" textLength="115.6987" x="463.1323" y="347.7231">extract username</text><text fill="#000000" font-family="sans-serif" font-size="13" lengthAdjust="spacing" textLength="190.271" x="463.1323" y="362.856">from Authentication principal</text></g><g class="message" data-entity-1="part3" data-entity-2="part4" id="msg6"><polygon fill="#181818" points="732.3726,406.0547,742.3726,410.0547,732.3726,414.0547,736.3726,410.0547" style="stroke:#181818;stroke-width:1;"/><line style="stroke:#181818;stroke-width:1;" x1="456.1323" x2="738.3726" y1="410.0547" y2="410.0547"/><text fill="#000000" font-family="sans-serif" font-size="13" lengthAdjust="spacing" textLength="264.2402" x="463.1323" y="404.9888">persist(username, appointmentRequest)</text></g><g class="message" data-entity-1="part4" data-entity-2="part5" id="msg7"><polygon fill="#181818" points="1021.0508,435.1875,1031.0508,439.1875,1021.0508,443.1875,1025.0508,439.1875" style="stroke:#181818;stroke-width:1;"/><line style="stroke:#181818;stroke-width:1;" x1="744.3726" x2="1027.0508" y1="439.1875" y2="439.1875"/><text fill="#000000" font-family="sans-serif" font-size="13" lengthAdjust="spacing" textLength="264.6782" x="751.3726" y="434.1216">retrieveByOwnerAndId(username, petId)</text></g><g class="message" data-entity-1="part5" data-entity-2="part8" id="msg8"><polygon fill="#181818" points="1456.978,464.3203,1466.978,468.3203,1456.978,472.3203,1460.978,468.3203" style="stroke:#181818;stroke-width:1;"/><line style="stroke:#181818;stroke-width:1;" x1="1033.0508" x2="1462.978" y1="468.3203" y2="468.3203"/><text fill="#000000" font-family="sans-serif" font-size="13" lengthAdjust="spacing" textLength="324.6382" x="1040.0508" y="463.2544">SELECT pet WHERE id=? AND owner.username=?</text></g><path d="M10,483.3203 L74.4429,483.3203 L74.4429,490.4531 L64.4429,500.4531 L10,500.4531 L10,483.3203" fill="#EEEEEE" style="stroke:#000000;stroke-width:1.5;"/><rect fill="none" height="119.6641" style="stroke:#000000;stroke-width:1.5;" width="1077.1938" x="10" y="483.3203"/><text fill="#000000" font-family="sans-serif" font-size="13" font-weight="bold" lengthAdjust="spacing" textLength="19.4429" x="25" y="496.3872">alt</text><text fill="#000000" font-family="sans-serif" font-size="11" font-weight="bold" lengthAdjust="spacing" textLength="196.5874" x="89.4429" y="495.5308">[pet not found or wrong owner]</text><g class="message" data-entity-1="part5" data-entity-2="part4" id="msg9"><polygon fill="#181818" points="755.3726,517.5859,745.3726,521.5859,755.3726,525.5859,751.3726,521.5859" style="stroke:#181818;stroke-width:1;"/><line style="stroke:#181818;stroke-width:1;stroke-dasharray:2,2;" x1="749.3726" x2="1032.0508" y1="521.5859" y2="521.5859"/><text fill="#000000" font-family="sans-serif" font-size="13" lengthAdjust="spacing" textLength="168.543" x="761.3726" y="516.52">throw NotFoundException</text></g><g class="message" data-entity-1="part4" data-entity-2="part3" id="msg10"><polygon fill="#181818" points="467.1323,546.7188,457.1323,550.7188,467.1323,554.7188,463.1323,550.7188" style="stroke:#181818;stroke-width:1;"/><line style="stroke:#181818;stroke-width:1;stroke-dasharray:2,2;" x1="461.1323" x2="743.3726" y1="550.7188" y2="550.7188"/><text fill="#000000" font-family="sans-serif" font-size="13" lengthAdjust="spacing" textLength="83.9985" x="473.1323" y="545.6528">(propagates)</text></g><g class="message" data-entity-1="part3" data-entity-2="part1" id="msg11"><polygon fill="#181818" points="54.2651,590.9844,44.2651,594.9844,54.2651,598.9844,50.2651,594.9844" style="stroke:#181818;stroke-width:1;"/><line style="stroke:#181818;stroke-width:1;stroke-dasharray:2,2;" x1="48.2651" x2="455.1323" y1="594.9844" y2="594.9844"/><text fill="#000000" font-family="sans-serif" font-size="13" lengthAdjust="spacing" textLength="96.0146" x="60.2651" y="574.7856">404 Not Found</text><text fill="#000000" font-family="sans-serif" font-size="13" lengthAdjust="spacing" textLength="108.5005" x="60.2651" y="589.9185">{ProblemDetail}</text></g><g class="message" data-entity-1="part5" data-entity-2="part4" id="msg12"><polygon fill="#181818" points="755.3726,627.1172,745.3726,631.1172,755.3726,635.1172,751.3726,631.1172" style="stroke:#181818;stroke-width:1;"/><line style="stroke:#181818;stroke-width:1;stroke-dasharray:2,2;" x1="749.3726" x2="1032.0508" y1="631.1172" y2="631.1172"/><text fill="#000000" font-family="sans-serif" font-size="13" lengthAdjust="spacing" textLength="58.8872" x="761.3726" y="626.0513">PetEntity</text></g><g class="message" data-entity-1="part4" data-entity-2="part6" id="msg13"><polygon fill="#181818" points="1119.9043,656.25,1129.9043,660.25,1119.9043,664.25,1123.9043,660.25" style="stroke:#181818;stroke-width:1;"/><line style="stroke:#181818;stroke-width:1;" x1="744.3726" x2="1125.9043" y1="660.25" y2="660.25"/><text fill="#000000" font-family="sans-serif" font-size="13" lengthAdjust="spacing" textLength="122.8018" x="751.3726" y="655.1841">retrieveById(vetId)</text></g><g class="message" data-entity-1="part6" data-entity-2="part8" id="msg14"><polygon fill="#181818" points="1456.978,685.3828,1466.978,689.3828,1456.978,693.3828,1460.978,689.3828" style="stroke:#181818;stroke-width:1;"/><line style="stroke:#181818;stroke-width:1;" x1="1131.9043" x2="1462.978" y1="689.3828" y2="689.3828"/><text fill="#000000" font-family="sans-serif" font-size="13" lengthAdjust="spacing" textLength="159.8721" x="1138.9043" y="684.3169">SELECT vet WHERE id=?</text></g><path d="M10,704.3828 L74.4429,704.3828 L74.4429,711.5156 L64.4429,721.5156 L10,721.5156 L10,704.3828" fill="#EEEEEE" style="stroke:#000000;stroke-width:1.5;"/><rect fill="none" height="119.6641" style="stroke:#000000;stroke-width:1.5;" width="1176.6147" x="10" y="704.3828"/><text fill="#000000" font-family="sans-serif" font-size="13" font-weight="bold" lengthAdjust="spacing" textLength="19.4429" x="25" y="717.4497">alt</text><text fill="#000000" font-family="sans-serif" font-size="11" font-weight="bold" lengthAdjust="spacing" textLength="94.1284" x="89.4429" y="716.5933">[vet not found]</text><g class="message" data-entity-1="part6" data-entity-2="part4" id="msg15"><polygon fill="#181818" points="755.3726,738.6484,745.3726,742.6484,755.3726,746.6484,751.3726,742.6484" style="stroke:#181818;stroke-width:1;"/><line style="stroke:#181818;stroke-width:1;stroke-dasharray:2,2;" x1="749.3726" x2="1130.9043" y1="742.6484" y2="742.6484"/><text fill="#000000" font-family="sans-serif" font-size="13" lengthAdjust="spacing" textLength="168.543" x="761.3726" y="737.5825">throw NotFoundException</text></g><g class="message" data-entity-1="part4" data-entity-2="part3" id="msg16"><polygon fill="#181818" points="467.1323,767.7813,457.1323,771.7813,467.1323,775.7813,463.1323,771.7813" style="stroke:#181818;stroke-width:1;"/><line style="stroke:#181818;stroke-width:1;stroke-dasharray:2,2;" x1="461.1323" x2="743.3726" y1="771.7813" y2="771.7813"/><text fill="#000000" font-family="sans-serif" font-size="13" lengthAdjust="spacing" textLength="83.9985" x="473.1323" y="766.7153">(propagates)</text></g><g class="message" data-entity-1="part3" data-entity-2="part1" id="msg17"><polygon fill="#181818" points="54.2651,812.0469,44.2651,816.0469,54.2651,820.0469,50.2651,816.0469" style="stroke:#181818;stroke-width:1;"/><line style="stroke:#181818;stroke-width:1;stroke-dasharray:2,2;" x1="48.2651" x2="455.1323" y1="816.0469" y2="816.0469"/><text fill="#000000" font-family="sans-serif" font-size="13" lengthAdjust="spacing" textLength="96.0146" x="60.2651" y="795.8481">404 Not Found</text><text fill="#000000" font-family="sans-serif" font-size="13" lengthAdjust="spacing" textLength="108.5005" x="60.2651" y="810.981">{ProblemDetail}</text></g><g class="message" data-entity-1="part6" data-entity-2="part4" id="msg18"><polygon fill="#181818" points="755.3726,848.1797,745.3726,852.1797,755.3726,856.1797,751.3726,852.1797" style="stroke:#181818;stroke-width:1;"/><line style="stroke:#181818;stroke-width:1;stroke-dasharray:2,2;" x1="749.3726" x2="1130.9043" y1="852.1797" y2="852.1797"/><text fill="#000000" font-family="sans-serif" font-size="13" lengthAdjust="spacing" textLength="59.9409" x="761.3726" y="847.1138">VetEntity</text></g><g class="message" data-entity-1="part4" data-entity-2="part7" id="msg19"><polygon fill="#181818" points="1252.876,877.3125,1262.876,881.3125,1252.876,885.3125,1256.876,881.3125" style="stroke:#181818;stroke-width:1;"/><line style="stroke:#181818;stroke-width:1;" x1="744.3726" x2="1258.876" y1="881.3125" y2="881.3125"/><text fill="#000000" font-family="sans-serif" font-size="13" lengthAdjust="spacing" textLength="239.605" x="751.3726" y="876.2466">persist(petEntity, vetEntity, startsAt)</text></g><g class="message" data-entity-1="part7" data-entity-2="part8" id="msg20"><polygon fill="#181818" points="1456.978,906.4453,1466.978,910.4453,1456.978,914.4453,1460.978,910.4453" style="stroke:#181818;stroke-width:1;"/><line style="stroke:#181818;stroke-width:1;" x1="1264.876" x2="1462.978" y1="910.4453" y2="910.4453"/><text fill="#000000" font-family="sans-serif" font-size="13" lengthAdjust="spacing" textLength="177.1377" x="1271.876" y="905.3794">INSERT INTO appointments</text></g><g class="message" data-entity-1="part8" data-entity-2="part7" id="msg21"><polygon fill="#181818" points="1275.876,935.5781,1265.876,939.5781,1275.876,943.5781,1271.876,939.5781" style="stroke:#181818;stroke-width:1;"/><line style="stroke:#181818;stroke-width:1;stroke-dasharray:2,2;" x1="1269.876" x2="1467.978" y1="939.5781" y2="939.5781"/><text fill="#000000" font-family="sans-serif" font-size="13" lengthAdjust="spacing" textLength="180.1021" x="1281.876" y="934.5122">AppointmentEntity (with id)</text></g><g class="message" data-entity-1="part7" data-entity-2="part4" id="msg22"><polygon fill="#181818" points="755.3726,964.7109,745.3726,968.7109,755.3726,972.7109,751.3726,968.7109" style="stroke:#181818;stroke-width:1;"/><line style="stroke:#181818;stroke-width:1;stroke-dasharray:2,2;" x1="749.3726" x2="1263.876" y1="968.7109" y2="968.7109"/><text fill="#000000" font-family="sans-serif" font-size="13" lengthAdjust="spacing" textLength="122.2495" x="761.3726" y="963.645">AppointmentEntity</text></g><g class="message" data-entity-1="part4" data-entity-2="part4" id="msg23"><line style="stroke:#181818;stroke-width:1;" x1="744.3726" x2="786.3726" y1="997.8438" y2="997.8438"/><line style="stroke:#181818;stroke-width:1;" x1="786.3726" x2="786.3726" y1="997.8438" y2="1010.8438"/><line style="stroke:#181818;stroke-width:1;" x1="745.3726" x2="786.3726" y1="1010.8438" y2="1010.8438"/><polygon fill="#181818" points="755.3726,1006.8438,745.3726,1010.8438,755.3726,1014.8438,751.3726,1010.8438" style="stroke:#181818;stroke-width:1;"/><text fill="#000000" font-family="sans-serif" font-size="13" lengthAdjust="spacing" textLength="236.3423" x="751.3726" y="992.7778">EntityMapper.toAppointment(entity)</text></g><g class="message" data-entity-1="part4" data-entity-2="part3" id="msg24"><polygon fill="#181818" points="467.1323,1035.9766,457.1323,1039.9766,467.1323,1043.9766,463.1323,1039.9766" style="stroke:#181818;stroke-width:1;"/><line style="stroke:#181818;stroke-width:1;stroke-dasharray:2,2;" x1="461.1323" x2="743.3726" y1="1039.9766" y2="1039.9766"/><text fill="#000000" font-family="sans-serif" font-size="13" lengthAdjust="spacing" textLength="193.4321" x="473.1323" y="1034.9106">Appointment (domain record)</text></g><g class="message" data-entity-1="part3" data-entity-2="part1" id="msg25"><polygon fill="#181818" points="54.2651,1080.2422,44.2651,1084.2422,54.2651,1088.2422,50.2651,1084.2422" style="stroke:#181818;stroke-width:1;"/><line style="stroke:#181818;stroke-width:1;stroke-dasharray:2,2;" x1="48.2651" x2="455.1323" y1="1084.2422" y2="1084.2422"/><text fill="#000000" font-family="sans-serif" font-size="13" lengthAdjust="spacing" textLength="47.7026" x="60.2651" y="1064.0435">200 OK</text><text fill="#000000" font-family="sans-serif" font-size="13" lengthAdjust="spacing" textLength="170.5488" x="60.2651" y="1079.1763">{id, vetId, petId, startsAt}</text></g><?plantuml-src nLHTJzj047o_Nx62bqI5GgjMbQ92b8-BIaiJb4JmOgawx0MkE7VkUMEJ8lvxzyuaiKdfQnyYHzwPcvtPFPEc5E5YCfl3aIqDkYELPLORMg2X7BhTBlIjlTVc5aQfBOLGCLa7WrHpNOXCETAnpfGXsFjQqaYdX6uFL0u_Iu9zAULm99kmYPVfrLGYCx26d4tJPsfCBeNzKKyEvAT_SoCpGrVe60FFyi_JvB3Nf5qWrN7PAx3B9gnu1LRJhyDhueaYTQroXBtXyx-0IAuvaNUZZr8AKIK8XwSXgCwh8uXCRqbtrkdVYhGr7UYZSkZWCzbxDAUHwTjarO770kaiEO2iUkJ43USzUXB27xzHALIgkJc4m8PStnf5IuUHmGToF5jOvkYCMY2yWJos6JRvEHBCC5uwJIi_D6P5fZMTdCiVawkndBOtUc667RYnhbGk0OU_bfZpneJts_fBsSZSEBi0xvdTwpYOXinfuzDFjtm_wmxRTRdEgRMc7q0jkscboJrvC7CoJt58JcE1_LMrJ2OvIshy461RP8700-l0J9xBmTmNuEgBd4hGoKaNUkCXX6czNNDFkaAb57364ZjVcWJuhfJEykq9M06-XyDD-tJdR0bZIoCFbWynPjulmqB7svXQcREPkkN9vMskLY5m-NcBEl3X-8C_1y91aNcySFOwnSKGIUdqIQ19H4EPRuJaV6cr2QTeXiEX55KKnKuKHIEAuBgek-OEY_zciw5ykMEpiJRPkdpW3Qp_hYzFMwYjzRFnJ4xd_9XFwZkM2wuUhi-jVHcgmw1LQhhZcAgpDdtj03VzLVNgvNSMuWKZMuEtC9JQuaLqDGYq4hjGsl0qO-jOMkm6-Vxu62RVE46T1Ez__NRy0G00?></g></svg>