<?plantuml 1.2026.2?><svg xmlns="http://www.w3.org/2000/svg" xmlns:xlink="http://www.w3.org/1999/xlink" contentStyleType="text/css" data-diagram-type="DESCRIPTION" height="578px" preserveAspectRatio="none" style="width:1950px;height:578px;background:#FFFFFF;" version="1.1" viewBox="0 0 1950 578" width="1950px" zoomAndPan="magnify"><title>PetcliniX ??? Service Layer Composition
Data Services (own one repository) vs Orchestrating Services (own only other services)</title><defs/><g><g class="title" data-source-line="2"><text fill="#000000" font-family="sans-serif" font-size="14" font-weight="bold" lengthAdjust="spacing" textLength="314.1865" x="810.9067" y="22.9951">PetcliniX ??? Service Layer Composition</text><text fill="#000000" font-family="sans-serif" font-size="14" font-weight="bold" lengthAdjust="spacing" textLength="692.9658" x="621.5171" y="39.292">Data Services (own one repository) vs Orchestrating Services (own only other services)</text></g><!--cluster Controllers (web)--><g class="cluster" data-qualified-name="Controllers .web." data-source-line="10" id="ent0002"><path d="M8.5,59.5938 L127.3789,59.5938 A3.75,3.75 0 0 1 129.8789,62.0938 L136.8789,79.5625 L1940.5,79.5625 A2.5,2.5 0 0 1 1943,82.0625 L1943,139.0637 A2.5,2.5 0 0 1 1940.5,141.5637 L8.5,141.5637 A2.5,2.5 0 0 1 6,139.0637 L6,62.0938 A2.5,2.5 0 0 1 8.5,59.5938" fill="#FAECE7" style="stroke:#000000;stroke-width:1.5;"/><line style="stroke:#000000;stroke-width:1.5;" x1="6" x2="136.8789" y1="79.5625" y2="79.5625"/><text fill="#000000" font-family="sans-serif" font-size="12" font-weight="bold" lengthAdjust="spacing" textLength="117.8789" x="10" y="72.7324">Controllers (web)</text></g><!--cluster Orchestrating Services--><g class="cluster" data-qualified-name="Orchestrating Services" data-source-line="26" id="ent0014"><path d="M952.5,165.5637 L1108.498,165.5637 A3.75,3.75 0 0 1 1110.998,168.0637 L1117.998,185.5325 L1648.5,185.5325 A2.5,2.5 0 0 1 1651,188.0325 L1651,245.0337 A2.5,2.5 0 0 1 1648.5,247.5337 L952.5,247.5337 A2.5,2.5 0 0 1 950,245.0337 L950,168.0637 A2.5,2.5 0 0 1 952.5,165.5637" fill="#FFF2D0" style="stroke:#000000;stroke-width:1.5;"/><line style="stroke:#000000;stroke-width:1.5;" x1="950" x2="1117.998" y1="185.5325" y2="185.5325"/><text fill="#000000" font-family="sans-serif" font-size="12" font-weight="bold" lengthAdjust="spacing" textLength="154.998" x="954" y="178.7024">Orchestrating Services</text></g><!--cluster Data Services--><g class="cluster" data-qualified-name="Data Services" data-source-line="35" id="ent0019"><path d="M444.5,271.5337 L538.5996,271.5337 A3.75,3.75 0 0 1 541.0996,274.0337 L548.0996,291.5025 L1263.5,291.5025 A2.5,2.5 0 0 1 1266,294.0025 L1266,453.9337 A2.5,2.5 0 0 1 1263.5,456.4337 L444.5,456.4337 A2.5,2.5 0 0 1 442,453.9337 L442,274.0337 A2.5,2.5 0 0 1 444.5,271.5337" fill="#FAEEDA" style="stroke:#000000;stroke-width:1.5;"/><line style="stroke:#000000;stroke-width:1.5;" x1="442" x2="548.0996" y1="291.5025" y2="291.5025"/><text fill="#000000" font-family="sans-serif" font-size="12" font-weight="bold" lengthAdjust="spacing" textLength="93.0996" x="446" y="284.6724">Data Services</text></g><!--cluster Repositories (persistence)--><g class="cluster" data-qualified-name="Repositories .persistence." data-source-line="48" id="ent0028"><path d="M386.5,480.4337 L566.123,480.4337 A3.75,3.75 0 0 1 568.623,482.9337 L575.623,500.4025 L1238.5,500.4025 A2.5,2.5 0 0 1 1241,502.9025 L1241,568.9038 A2.5,2.5 0 0 1 1238.5,571.4038 L386.5,571.4038 A2.5,2.5 0 0 1 384,568.9038 L384,482.9337 A2.5,2.5 0 0 1 386.5,480.4337" fill="#E1F5EE" style="stroke:#000000;stroke-width:1.5;"/><line style="stroke:#000000;stroke-width:1.5;" x1="384" x2="575.623" y1="500.4025" y2="500.4025"/><text fill="#000000" font-family="sans-serif" font-size="12" font-weight="bold" lengthAdjust="spacing" textLength="178.623" x="388" y="493.5724">Repositories (persistence)</text></g><!--entity AuthController--><g class="entity" data-qualified-name="Controllers .web..AuthController" data-source-line="11" id="ent0003"><rect fill="#F1F1F1" height="33.9688" rx="2.5" ry="2.5" style="stroke:#181818;stroke-width:0.5;" width="107.416" x="356.29" y="91.5937"/><text fill="#000000" font-family="sans-serif" font-size="12" lengthAdjust="spacing" textLength="87.416" x="366.29" y="112.7324">AuthController</text></g><!--entity UsersController--><g class="entity" data-qualified-name="Controllers .web..UsersController" data-source-line="12" id="ent0004"><rect fill="#F1F1F1" height="33.9688" rx="2.5" ry="2.5" style="stroke:#181818;stroke-width:0.5;" width="112.8945" x="208.55" y="91.5937"/><text fill="#000000" font-family="sans-serif" font-size="12" lengthAdjust="spacing" textLength="92.8945" x="218.55" y="112.7324">UsersController</text></g><!--entity PetsController--><g class="entity" data-qualified-name="Controllers .web..PetsController" data-source-line="13" id="ent0005"><rect fill="#F1F1F1" height="33.9688" rx="2.5" ry="2.5" style="stroke:#181818;stroke-width:0.5;" width="104.8672" x="853.57" y="91.5937"/><text fill="#000000" font-family="sans-serif" font-size="12" lengthAdjust="spacing" textLength="84.8672" x="863.57" y="112.7324">PetsController</text></g><!--entity VetsController--><g class="entity" data-qualified-name="Controllers .web..VetsController" data-source-line="14" id="ent0006"><rect fill="#F1F1F1" height="33.9688" rx="2.5" ry="2.5" style="stroke:#181818;stroke-width:0.5;" width="105.8398" x="1821.08" y="91.5937"/><text fill="#000000" font-family="sans-serif" font-size="12" lengthAdjust="spacing" textLength="85.8398" x="1831.08" y="112.7324">VetsController</text></g><!--entity LocationsController--><g class="entity" data-qualified-name="Controllers .web..LocationsController" data-source-line="15" id="ent0007"><rect fill="#F1F1F1" height="33.9688" rx="2.5" ry="2.5" style="stroke:#181818;stroke-width:0.5;" width="136.5078" x="681.75" y="91.5937"/><text fill="#000000" font-family="sans-serif" font-size="12" lengthAdjust="spacing" textLength="116.5078" x="691.75" y="112.7324">LocationsController</text></g><!--entity OwnerAppointmentsController--><g class="entity" data-qualified-name="Controllers .web..OwnerAppointmentsController" data-source-line="16" id="ent0008"><rect fill="#F1F1F1" height="33.9688" rx="2.5" ry="2.5" style="stroke:#181818;stroke-width:0.5;" width="202.5371" x="1583.73" y="91.5937"/><text fill="#000000" font-family="sans-serif" font-size="12" lengthAdjust="spacing" textLength="182.5371" x="1593.73" y="112.7324">OwnerAppointmentsController</text></g><!--entity VetAppointmentsController--><g class="entity" data-qualified-name="Controllers .web..VetAppointmentsController" data-source-line="17" id="ent0009"><rect fill="#F1F1F1" height="33.9688" rx="2.5" ry="2.5" style="stroke:#181818;stroke-width:0.5;" width="183.6523" x="1365.17" y="91.5937"/><text fill="#000000" font-family="sans-serif" font-size="12" lengthAdjust="spacing" textLength="163.6523" x="1375.17" y="112.7324">VetAppointmentsController</text></g><!--entity OwnerPetVisitsController--><g class="entity" data-qualified-name="Controllers .web..OwnerPetVisitsController" data-source-line="18" id="ent0010"><rect fill="#F1F1F1" height="33.9688" rx="2.5" ry="2.5" style="stroke:#181818;stroke-width:0.5;" width="169.8828" x="993.06" y="91.5937"/><text fill="#000000" font-family="sans-serif" font-size="12" lengthAdjust="spacing" textLength="149.8828" x="1003.06" y="112.7324">OwnerPetVisitsController</text></g><!--entity VetVisitsController--><g class="entity" data-qualified-name="Controllers .web..VetVisitsController" data-source-line="19" id="ent0011"><rect fill="#F1F1F1" height="33.9688" rx="2.5" ry="2.5" style="stroke:#181818;stroke-width:0.5;" width="131.6738" x="1198.16" y="91.5937"/><text fill="#000000" font-family="sans-serif" font-size="12" lengthAdjust="spacing" textLength="111.6738" x="1208.16" y="112.7324">VetVisitsController</text></g><!--entity AdminStatsController--><g class="entity" data-qualified-name="Controllers .web..AdminStatsController" data-source-line="20" id="ent0012"><rect fill="#F1F1F1" height="33.9688" rx="2.5" ry="2.5" style="stroke:#181818;stroke-width:0.5;" width="148.3789" x="498.81" y="91.5937"/><text fill="#000000" font-family="sans-serif" font-size="12" lengthAdjust="spacing" textLength="128.3789" x="508.81" y="112.7324">AdminStatsController</text></g><!--entity AdminUsersController--><g class="entity" data-qualified-name="Controllers .web..AdminUsersController" data-source-line="21" id="ent0013"><rect fill="#F1F1F1" height="33.9688" rx="2.5" ry="2.5" style="stroke:#181818;stroke-width:0.5;" width="151.3496" x="22.33" y="91.5937"/><text fill="#000000" font-family="sans-serif" font-size="12" lengthAdjust="spacing" textLength="131.3496" x="32.33" y="112.7324">AdminUsersController</text></g><!--entity OwnerAppointmentService--><g class="entity" data-qualified-name="Orchestrating Services.OwnerAppointmentService" data-source-line="27" id="ent0015"><rect fill="#F1F1F1" height="33.9688" rx="2.5" ry="2.5" style="stroke:#181818;stroke-width:0.5;" width="181.3438" x="1453.33" y="197.5637"/><text fill="#000000" font-family="sans-serif" font-size="12" lengthAdjust="spacing" textLength="161.3438" x="1463.33" y="218.7024">OwnerAppointmentService</text></g><!--entity VetAppointmentService--><g class="entity" data-qualified-name="Orchestrating Services.VetAppointmentService" data-source-line="28" id="ent0016"><rect fill="#F1F1F1" height="33.9688" rx="2.5" ry="2.5" style="stroke:#181818;stroke-width:0.5;" width="162.459" x="1255.77" y="197.5637"/><text fill="#000000" font-family="sans-serif" font-size="12" lengthAdjust="spacing" textLength="142.459" x="1265.77" y="218.7024">VetAppointmentService</text></g><!--entity PetVisitService--><g class="entity" data-qualified-name="Orchestrating Services.PetVisitService" data-source-line="29" id="ent0017"><rect fill="#F1F1F1" height="33.9688" rx="2.5" ry="2.5" style="stroke:#181818;stroke-width:0.5;" width="109.5078" x="966.25" y="197.5637"/><text fill="#000000" font-family="sans-serif" font-size="12" lengthAdjust="spacing" textLength="89.5078" x="976.25" y="218.7024">PetVisitService</text></g><!--entity VetVisitService--><g class="entity" data-qualified-name="Orchestrating Services.VetVisitService" data-source-line="30" id="ent0018"><rect fill="#F1F1F1" height="33.9688" rx="2.5" ry="2.5" style="stroke:#181818;stroke-width:0.5;" width="110.4805" x="1110.76" y="197.5637"/><text fill="#000000" font-family="sans-serif" font-size="12" lengthAdjust="spacing" textLength="90.4805" x="1120.76" y="218.7024">VetVisitService</text></g><!--entity UserService--><g class="entity" data-qualified-name="Data Services.UserService" data-source-line="36" id="ent0020"><rect fill="#F1F1F1" height="33.9688" rx="2.5" ry="2.5" style="stroke:#181818;stroke-width:0.5;" width="91.7012" x="458.15" y="303.5337"/><text fill="#000000" font-family="sans-serif" font-size="12" lengthAdjust="spacing" textLength="71.7012" x="468.15" y="324.6724">UserService</text></g><!--entity PetService--><g class="entity" data-qualified-name="Data Services.PetService" data-source-line="37" id="ent0021"><rect fill="#F1F1F1" height="33.9688" rx="2.5" ry="2.5" style="stroke:#181818;stroke-width:0.5;" width="83.6738" x="864.16" y="303.5337"/><text fill="#000000" font-family="sans-serif" font-size="12" lengthAdjust="spacing" textLength="63.6738" x="874.16" y="324.6724">PetService</text></g><!--entity VetService--><g class="entity" data-qualified-name="Data Services.VetService" data-source-line="38" id="ent0022"><rect fill="#F1F1F1" height="33.9688" rx="2.5" ry="2.5" style="stroke:#181818;stroke-width:0.5;" width="84.6465" x="1165.68" y="406.4637"/><text fill="#000000" font-family="sans-serif" font-size="12" lengthAdjust="spacing" textLength="64.6465" x="1175.68" y="427.6024">VetService</text></g><!--entity OwnerService--><g class="entity" data-qualified-name="Data Services.OwnerService" data-source-line="39" id="ent0023"><rect fill="#F1F1F1" height="33.9688" rx="2.5" ry="2.5" style="stroke:#181818;stroke-width:0.5;" width="103.5313" x="1027.23" y="406.4637"/><text fill="#000000" font-family="sans-serif" font-size="12" lengthAdjust="spacing" textLength="83.5313" x="1037.23" y="427.6024">OwnerService</text></g><!--entity AppointmentService--><g class="entity" data-qualified-name="Data Services.AppointmentService" data-source-line="40" id="ent0024"><rect fill="#F1F1F1" height="33.9688" rx="2.5" ry="2.5" style="stroke:#181818;stroke-width:0.5;" width="142.1621" x="1107.92" y="303.5337"/><text fill="#000000" font-family="sans-serif" font-size="12" lengthAdjust="spacing" textLength="122.1621" x="1117.92" y="324.6724">AppointmentService</text></g><!--entity VisitService--><g class="entity" data-qualified-name="Data Services.VisitService" data-source-line="41" id="ent0025"><rect fill="#F1F1F1" height="33.9688" rx="2.5" ry="2.5" style="stroke:#181818;stroke-width:0.5;" width="90.1836" x="982.91" y="303.5337"/><text fill="#000000" font-family="sans-serif" font-size="12" lengthAdjust="spacing" textLength="70.1836" x="992.91" y="324.6724">VisitService</text></g><!--entity LocationService--><g class="entity" data-qualified-name="Data Services.LocationService" data-source-line="42" id="ent0026"><rect fill="#F1F1F1" height="33.9688" rx="2.5" ry="2.5" style="stroke:#181818;stroke-width:0.5;" width="115.3145" x="714.34" y="303.5337"/><text fill="#000000" font-family="sans-serif" font-size="12" lengthAdjust="spacing" textLength="95.3145" x="724.34" y="324.6724">LocationService</text></g><!--entity StatsService--><g class="entity" data-qualified-name="Data Services.StatsService" data-source-line="43" id="ent0027"><rect fill="#F1F1F1" height="33.9688" rx="2.5" ry="2.5" style="stroke:#181818;stroke-width:0.5;" width="94.9824" x="584.51" y="303.5337"/><text fill="#000000" font-family="sans-serif" font-size="12" lengthAdjust="spacing" textLength="74.9824" x="594.51" y="324.6724">StatsService</text></g><!--entity UserRepo--><g class="entity" data-qualified-name="Repositories .persistence..UserRepo" data-source-line="49" id="ent0029"><path d="M399.98,522.4337 C399.98,512.4337 438.9956,512.4337 438.9956,512.4337 C438.9956,512.4337 478.0113,512.4337 478.0113,522.4337 L478.0113,545.4025 C478.0113,555.4025 438.9956,555.4025 438.9956,555.4025 C438.9956,555.4025 399.98,555.4025 399.98,545.4025 L399.98,522.4337" fill="#F1F1F1" style="stroke:#181818;stroke-width:0.5;"/><path d="M399.98,522.4337 C399.98,532.4337 438.9956,532.4337 438.9956,532.4337 C438.9956,532.4337 478.0113,532.4337 478.0113,522.4337" fill="none" style="stroke:#181818;stroke-width:0.5;"/><text fill="#000000" font-family="sans-serif" font-size="12" lengthAdjust="spacing" textLength="58.0313" x="409.98" y="547.5724">UserRepo</text></g><!--entity OwnerRepo--><g class="entity" data-qualified-name="Repositories .persistence..OwnerRepo" data-source-line="50" id="ent0030"><path d="M918.07,522.4337 C918.07,512.4337 963.0007,512.4337 963.0007,512.4337 C963.0007,512.4337 1007.9313,512.4337 1007.9313,522.4337 L1007.9313,545.4025 C1007.9313,555.4025 963.0007,555.4025 963.0007,555.4025 C963.0007,555.4025 918.07,555.4025 918.07,545.4025 L918.07,522.4337" fill="#F1F1F1" style="stroke:#181818;stroke-width:0.5;"/><path d="M918.07,522.4337 C918.07,532.4337 963.0007,532.4337 963.0007,532.4337 C963.0007,532.4337 1007.9313,532.4337 1007.9313,522.4337" fill="none" style="stroke:#181818;stroke-width:0.5;"/><text fill="#000000" font-family="sans-serif" font-size="12" lengthAdjust="spacing" textLength="69.8613" x="928.07" y="547.5724">OwnerRepo</text></g><!--entity VetRepo--><g class="entity" data-qualified-name="Repositories .persistence..VetRepo" data-source-line="51" id="ent0031"><path d="M1154.51,522.4337 C1154.51,512.4337 1189.9983,512.4337 1189.9983,512.4337 C1189.9983,512.4337 1225.4866,512.4337 1225.4866,522.4337 L1225.4866,545.4025 C1225.4866,555.4025 1189.9983,555.4025 1189.9983,555.4025 C1189.9983,555.4025 1154.51,555.4025 1154.51,545.4025 L1154.51,522.4337" fill="#F1F1F1" style="stroke:#181818;stroke-width:0.5;"/><path d="M1154.51,522.4337 C1154.51,532.4337 1189.9983,532.4337 1189.9983,532.4337 C1189.9983,532.4337 1225.4866,532.4337 1225.4866,522.4337" fill="none" style="stroke:#181818;stroke-width:0.5;"/><text fill="#000000" font-family="sans-serif" font-size="12" lengthAdjust="spacing" textLength="50.9766" x="1164.51" y="547.5724">VetRepo</text></g><!--entity PetRepo--><g class="entity" data-qualified-name="Repositories .persistence..PetRepo" data-source-line="52" id="ent0032"><path d="M513,522.4337 C513,512.4337 548.002,512.4337 548.002,512.4337 C548.002,512.4337 583.0039,512.4337 583.0039,522.4337 L583.0039,545.4025 C583.0039,555.4025 548.002,555.4025 548.002,555.4025 C548.002,555.4025 513,555.4025 513,545.4025 L513,522.4337" fill="#F1F1F1" style="stroke:#181818;stroke-width:0.5;"/><path d="M513,522.4337 C513,532.4337 548.002,532.4337 548.002,532.4337 C548.002,532.4337 583.0039,532.4337 583.0039,522.4337" fill="none" style="stroke:#181818;stroke-width:0.5;"/><text fill="#000000" font-family="sans-serif" font-size="12" lengthAdjust="spacing" textLength="50.0039" x="523" y="547.5724">PetRepo</text></g><!--entity AppointmentRepo--><g class="entity" data-qualified-name="Repositories .persistence..AppointmentRepo" data-source-line="53" id="ent0033"><path d="M754.75,522.4337 C754.75,512.4337 818.9961,512.4337 818.9961,512.4337 C818.9961,512.4337 883.2422,512.4337 883.2422,522.4337 L883.2422,545.4025 C883.2422,555.4025 818.9961,555.4025 818.9961,555.4025 C818.9961,555.4025 754.75,555.4025 754.75,545.4025 L754.75,522.4337" fill="#F1F1F1" style="stroke:#181818;stroke-width:0.5;"/><path d="M754.75,522.4337 C754.75,532.4337 818.9961,532.4337 818.9961,532.4337 C818.9961,532.4337 883.2422,532.4337 883.2422,522.4337" fill="none" style="stroke:#181818;stroke-width:0.5;"/><text fill="#000000" font-family="sans-serif" font-size="12" lengthAdjust="spacing" textLength="108.4922" x="764.75" y="547.5724">AppointmentRepo</text></g><!--entity VisitRepo--><g class="entity" data-qualified-name="Repositories .persistence..VisitRepo" data-source-line="54" id="ent0034"><path d="M1042.74,522.4337 C1042.74,512.4337 1080.9968,512.4337 1080.9968,512.4337 C1080.9968,512.4337 1119.2537,512.4337 1119.2537,522.4337 L1119.2537,545.4025 C1119.2537,555.4025 1080.9968,555.4025 1080.9968,555.4025 C1080.9968,555.4025 1042.74,555.4025 1042.74,545.4025 L1042.74,522.4337" fill="#F1F1F1" style="stroke:#181818;stroke-width:0.5;"/><path d="M1042.74,522.4337 C1042.74,532.4337 1080.9968,532.4337 1080.9968,532.4337 C1080.9968,532.4337 1119.2537,532.4337 1119.2537,522.4337" fill="none" style="stroke:#181818;stroke-width:0.5;"/><text fill="#000000" font-family="sans-serif" font-size="12" lengthAdjust="spacing" textLength="56.5137" x="1052.74" y="547.5724">VisitRepo</text></g><!--entity LocationRepo--><g class="entity" data-qualified-name="Repositories .persistence..LocationRepo" data-source-line="55" id="ent0035"><path d="M618.18,522.4337 C618.18,512.4337 669.0023,512.4337 669.0023,512.4337 C669.0023,512.4337 719.8245,512.4337 719.8245,522.4337 L719.8245,545.4025 C719.8245,555.4025 669.0023,555.4025 669.0023,555.4025 C669.0023,555.4025 618.18,555.4025 618.18,545.4025 L618.18,522.4337" fill="#F1F1F1" style="stroke:#181818;stroke-width:0.5;"/><path d="M618.18,522.4337 C618.18,532.4337 669.0023,532.4337 669.0023,532.4337 C669.0023,532.4337 719.8245,532.4337 719.8245,522.4337" fill="none" style="stroke:#181818;stroke-width:0.5;"/><text fill="#000000" font-family="sans-serif" font-size="12" lengthAdjust="spacing" textLength="81.6445" x="628.18" y="547.5724">LocationRepo</text></g><g class="entity" data-qualified-name="GMN64" data-source-line="99" id="ent0065"><path d="M260.45,397.4938 L260.45,449.4 A0,0 0 0 0 260.45,449.4 L425.5438,449.4 A0,0 0 0 0 425.5438,449.4 L425.5438,407.4938 L415.5438,397.4938 L419.78,397.4938 L584.92,337.9537 L411.78,397.4938 L260.45,397.4938 A0,0 0 0 0 260.45,397.4938" fill="#FEFFDD" style="stroke:#181818;stroke-width:0.5;"/><path d="M415.5438,397.4938 L415.5438,407.4938 L425.5438,407.4938 L415.5438,397.4938" fill="#FEFFDD" style="stroke:#181818;stroke-width:0.5;"/><text fill="#000000" font-family="sans-serif" font-size="12" lengthAdjust="spacing" textLength="144.0938" x="266.45" y="413.6324">Documented exception:</text><text fill="#000000" font-family="sans-serif" font-size="12" lengthAdjust="spacing" textLength="137.4023" x="266.45" y="427.6012">owns 4 repositories for</text><text fill="#000000" font-family="sans-serif" font-size="12" lengthAdjust="spacing" textLength="130.752" x="266.45" y="441.5699">cross-aggregate stats</text></g><!--link AuthController to UserService--><g class="link" data-entity-1="ent0003" data-entity-2="ent0020" data-link-type="dependency" data-source-line="60" id="lnk36"><path d="M417.38,126.0537 C434.95,165.2937 476.6674,258.4779 494.2074,297.6379" fill="none" id="AuthController-to-UserService" style="stroke:#555555;stroke-width:1;"/><polygon fill="#555555" points="496.66,303.1137,496.6316,293.2649,494.6161,298.5506,489.3305,296.5351,496.66,303.1137" style="stroke:#555555;stroke-width:1;"/></g><!--link UsersController to UserService--><g class="link" data-entity-1="ent0004" data-entity-2="ent0020" data-link-type="dependency" data-source-line="61" id="lnk37"><path d="M281.99,125.6837 C310.89,152.9437 371.69,209.6937 425,255.5337 C444.41,272.2137 462.4649,286.8006 478.5649,299.5406" fill="none" id="UsersController-to-UserService" style="stroke:#555555;stroke-width:1;"/><polygon fill="#555555" points="483.27,303.2637,478.6945,294.5423,479.3491,300.1611,473.7302,300.8157,483.27,303.2637" style="stroke:#555555;stroke-width:1;"/></g><!--link PetsController to PetService--><g class="link" data-entity-1="ent0005" data-entity-2="ent0021" data-link-type="dependency" data-source-line="62" id="lnk38"><path d="M906,126.0537 C906,165.2937 906,257.9537 906,297.1137" fill="none" id="PetsController-to-PetService" style="stroke:#555555;stroke-width:1;"/><polygon fill="#555555" points="906,303.1137,910,294.1137,906,298.1137,902,294.1137,906,303.1137" style="stroke:#555555;stroke-width:1;"/></g><!--link VetsController to VetService--><g class="link" data-entity-1="ent0006" data-entity-2="ent0022" data-link-type="dependency" data-source-line="63" id="lnk39"><path d="M1852.49,125.9437 C1813.78,154.8737 1729.13,215.7337 1651,255.5337 C1559.51,302.1337 1531.08,301.2837 1435,337.4938 C1370.82,361.6837 1301.9618,387.4173 1256.3218,404.4373" fill="none" id="VetsController-to-VetService" style="stroke:#555555;stroke-width:1;"/><polygon fill="#555555" points="1250.7,406.5337,1260.5304,407.1369,1255.3848,404.7867,1257.7351,399.6412,1250.7,406.5337" style="stroke:#555555;stroke-width:1;"/></g><!--link LocationsController to LocationService--><g class="link" data-entity-1="ent0007" data-entity-2="ent0026" data-link-type="dependency" data-source-line="64" id="lnk40"><path d="M751.73,126.0537 C755.84,165.2937 765.5552,257.9864 769.6552,297.1464" fill="none" id="LocationsController-to-LocationService" style="stroke:#555555;stroke-width:1;"/><polygon fill="#555555" points="770.28,303.1137,773.3211,293.7462,769.7594,298.1409,765.3646,294.5792,770.28,303.1137" style="stroke:#555555;stroke-width:1;"/></g><!--link OwnerAppointmentsController to OwnerAppointmentService--><g class="link" data-entity-1="ent0008" data-entity-2="ent0015" data-link-type="dependency" data-source-line="65" id="lnk41"><path d="M1662.66,126.0537 C1636.26,145.5137 1597.4191,174.1529 1571.0691,193.5829" fill="none" id="OwnerAppointmentsController-to-OwnerAppointmentService" style="stroke:#555555;stroke-width:1;"/><polygon fill="#555555" points="1566.24,197.1437,1575.8576,195.0218,1570.2642,194.1763,1571.1097,188.583,1566.24,197.1437" style="stroke:#555555;stroke-width:1;"/></g><!--link VetAppointmentsController to VetAppointmentService--><g class="link" data-entity-1="ent0009" data-entity-2="ent0016" data-link-type="dependency" data-source-line="66" id="lnk42"><path d="M1437.99,126.0537 C1415.52,145.5137 1382.8951,173.7852 1360.4651,193.2152" fill="none" id="VetAppointmentsController-to-VetAppointmentService" style="stroke:#555555;stroke-width:1;"/><polygon fill="#555555" points="1355.93,197.1437,1365.3516,194.2744,1359.7092,193.87,1360.1136,188.2276,1355.93,197.1437" style="stroke:#555555;stroke-width:1;"/></g><!--link OwnerPetVisitsController to PetVisitService--><g class="link" data-entity-1="ent0010" data-entity-2="ent0017" data-link-type="dependency" data-source-line="67" id="lnk43"><path d="M1069.09,125.8237 C1058.45,145.2437 1043.6141,172.2924 1032.9141,191.8124" fill="none" id="OwnerPetVisitsController-to-PetVisitService" style="stroke:#555555;stroke-width:1;"/><polygon fill="#555555" points="1030.03,197.0737,1037.8637,191.1044,1032.4334,192.6893,1030.8485,187.259,1030.03,197.0737" style="stroke:#555555;stroke-width:1;"/></g><!--link VetVisitsController to VetVisitService--><g class="link" data-entity-1="ent0011" data-entity-2="ent0018" data-link-type="dependency" data-source-line="68" id="lnk44"><path d="M1248.69,125.8237 C1230.38,145.2437 1204.0455,173.1877 1185.6455,192.7077" fill="none" id="VetVisitsController-to-VetVisitService" style="stroke:#555555;stroke-width:1;"/><polygon fill="#555555" points="1181.53,197.0737,1190.614,193.2684,1184.9596,193.4354,1184.7926,187.781,1181.53,197.0737" style="stroke:#555555;stroke-width:1;"/></g><!--link AdminStatsController to StatsService--><g class="link" data-entity-1="ent0012" data-entity-2="ent0027" data-link-type="dependency" data-source-line="69" id="lnk45"><path d="M577.63,126.0537 C588.66,165.2937 614.756,258.1777 625.766,297.3377" fill="none" id="AdminStatsController-to-StatsService" style="stroke:#555555;stroke-width:1;"/><polygon fill="#555555" points="627.39,303.1137,628.8048,293.367,626.0367,298.3004,621.1034,295.5323,627.39,303.1137" style="stroke:#555555;stroke-width:1;"/></g><!--link AdminUsersController to UserService--><g class="link" data-entity-1="ent0013" data-entity-2="ent0020" data-link-type="dependency" data-source-line="70" id="lnk46"><path d="M117.56,125.9137 C153.59,155.3437 233.75,217.6837 310,255.5337 C358.29,279.4937 411.8221,296.0196 452.0721,306.7396" fill="none" id="AdminUsersController-to-UserService" style="stroke:#555555;stroke-width:1;"/><polygon fill="#555555" points="457.87,308.2837,450.2026,302.1022,453.0384,306.9969,448.1437,309.8327,457.87,308.2837" style="stroke:#555555;stroke-width:1;"/></g><!--link OwnerAppointmentService to AppointmentService--><g class="link" data-entity-1="ent0015" data-entity-2="ent0024" data-link-type="dependency" data-source-line="74" id="lnk47"><path d="M1503.95,231.9737 C1483.8,239.8237 1458.86,248.9337 1436,255.5337 C1419.42,260.3137 1414.81,259.6137 1398,263.5337 C1344.49,275.9937 1289.8118,290.0445 1245.9918,301.5945" fill="none" id="OwnerAppointmentService-to-AppointmentService" style="stroke:#555555;stroke-width:1;"/><polygon fill="#555555" points="1240.19,303.1238,1249.9123,304.6978,1245.0249,301.8494,1247.8733,296.962,1240.19,303.1238" style="stroke:#555555;stroke-width:1;"/></g><!--link OwnerAppointmentService to PetService--><g class="link" data-entity-1="ent0015" data-entity-2="ent0021" data-link-type="dependency" data-source-line="75" id="lnk48"><path d="M1508.86,231.9937 C1488.15,240.8037 1461.15,250.8037 1436,255.5337 C1410.28,260.3637 989.22,253.6237 965,263.5337 C945.26,271.5937 931.9995,284.9157 921.3895,298.3457" fill="none" id="OwnerAppointmentService-to-PetService" style="stroke:#555555;stroke-width:1;"/><polygon fill="#555555" points="917.67,303.0537,926.3879,298.4713,920.7695,299.1304,920.1105,293.5121,917.67,303.0537" style="stroke:#555555;stroke-width:1;"/></g><!--link OwnerAppointmentService to VetService--><g class="link" data-entity-1="ent0015" data-entity-2="ent0022" data-link-type="dependency" data-source-line="76" id="lnk49"><path d="M1517.35,231.9537 C1454.49,270.6637 1302.6186,364.177 1239.7586,402.897" fill="none" id="OwnerAppointmentService-to-VetService" style="stroke:#555555;stroke-width:1;"/><polygon fill="#555555" points="1234.65,406.0437,1244.4108,404.7293,1238.9072,403.4214,1240.2151,397.9179,1234.65,406.0437" style="stroke:#555555;stroke-width:1;"/></g><!--link VetAppointmentService to AppointmentService--><g class="link" data-entity-1="ent0016" data-entity-2="ent0024" data-link-type="dependency" data-source-line="78" id="lnk50"><path d="M1311.96,232.0137 C1282.38,251.4837 1238.4623,280.3858 1208.9323,299.8158" fill="none" id="VetAppointmentService-to-AppointmentService" style="stroke:#555555;stroke-width:1;"/><polygon fill="#555555" points="1203.92,303.1137,1213.6371,301.5083,1208.0969,300.3654,1209.2398,294.8252,1203.92,303.1137" style="stroke:#555555;stroke-width:1;"/></g><!--link PetVisitService to PetService--><g class="link" data-entity-1="ent0017" data-entity-2="ent0021" data-link-type="dependency" data-source-line="80" id="lnk51"><path d="M1001.35,231.9637 C990.51,241.1237 976.88,252.8137 965,263.5337 C950.53,276.5837 938.8241,287.6537 927.1441,298.9437" fill="none" id="PetVisitService-to-PetService" style="stroke:#555555;stroke-width:1;"/><polygon fill="#555555" points="922.83,303.1137,932.0811,299.7348,926.425,299.6387,926.5211,293.9827,922.83,303.1137" style="stroke:#555555;stroke-width:1;"/></g><!--link PetVisitService to VisitService--><g class="link" data-entity-1="ent0017" data-entity-2="ent0025" data-link-type="dependency" data-source-line="81" id="lnk52"><path d="M1022.09,231.7937 C1023.4,251.2037 1025.1782,277.5372 1026.4882,297.0572" fill="none" id="PetVisitService-to-VisitService" style="stroke:#555555;stroke-width:1;"/><polygon fill="#555555" points="1026.89,303.0437,1030.2784,293.7961,1026.5552,298.055,1022.2963,294.3318,1026.89,303.0437" style="stroke:#555555;stroke-width:1;"/></g><!--link VetVisitService to AppointmentService--><g class="link" data-entity-1="ent0018" data-entity-2="ent0024" data-link-type="dependency" data-source-line="83" id="lnk53"><path d="M1168.03,231.7937 C1170.46,251.2037 1173.7558,277.5701 1176.1958,297.0901" fill="none" id="VetVisitService-to-AppointmentService" style="stroke:#555555;stroke-width:1;"/><polygon fill="#555555" points="1176.94,303.0437,1179.7928,293.6171,1176.3198,298.0824,1171.8546,294.6094,1176.94,303.0437" style="stroke:#555555;stroke-width:1;"/></g><!--link VetVisitService to VisitService--><g class="link" data-entity-1="ent0018" data-entity-2="ent0025" data-link-type="dependency" data-source-line="84" id="lnk54"><path d="M1137.44,231.9837 C1122.85,240.7737 1105.04,252.1237 1090,263.5337 C1073.71,275.8837 1060.8775,287.4577 1048.7575,299.0977" fill="none" id="VetVisitService-to-VisitService" style="stroke:#555555;stroke-width:1;"/><polygon fill="#555555" points="1044.43,303.2537,1053.6919,299.9046,1048.0362,299.7903,1048.1505,294.1346,1044.43,303.2537" style="stroke:#555555;stroke-width:1;"/></g><!--link UserService to UserRepo--><g class="link" data-entity-1="ent0020" data-entity-2="ent0029" data-link-type="dependency" data-source-line="88" id="lnk55"><path d="M457.76,325.4737 C376.87,333.4637 215.02,354.5437 181,397.4938 C162.53,420.8137 162.86,440.8537 181,464.4337 C207.56,498.9637 328.301,518.9327 393.731,527.5227" fill="none" id="UserService-to-UserRepo" style="stroke:#555555;stroke-width:1;"/><polygon fill="#555555" points="399.68,528.3037,391.2772,523.1663,394.7225,527.6529,390.2359,531.0982,399.68,528.3037" style="stroke:#555555;stroke-width:1;"/></g><!--link OwnerService to OwnerRepo--><g class="link" data-entity-1="ent0023" data-entity-2="ent0030" data-link-type="dependency" data-source-line="89" id="lnk56"><path d="M1060.06,440.8937 C1049.62,450.0637 1036.47,461.7537 1025,472.4337 C1011.13,485.3437 1000.1695,495.9881 988.2695,507.7381" fill="none" id="OwnerService-to-OwnerRepo" style="stroke:#555555;stroke-width:1;"/><polygon fill="#555555" points="984,511.9537,993.2146,508.4766,987.5579,508.4407,987.5938,502.784,984,511.9537" style="stroke:#555555;stroke-width:1;"/></g><!--link VetService to VetRepo--><g class="link" data-entity-1="ent0022" data-entity-2="ent0031" data-link-type="dependency" data-source-line="90" id="lnk57"><path d="M1205.27,440.9237 C1202.1,460.0037 1197.8622,485.5547 1194.4222,506.2847" fill="none" id="VetService-to-VetRepo" style="stroke:#555555;stroke-width:1;"/><polygon fill="#555555" points="1193.44,512.2037,1198.8594,503.98,1194.2585,507.2712,1190.9673,502.6703,1193.44,512.2037" style="stroke:#555555;stroke-width:1;"/></g><!--link PetService to PetRepo--><g class="link" data-entity-1="ent0021" data-entity-2="ent0032" data-link-type="dependency" data-source-line="91" id="lnk58"><path d="M863.87,336.2837 C802.17,359.2037 685.43,407.5337 601,472.4337 C586.39,483.6637 576.4271,494.6526 566.6471,507.2626" fill="none" id="PetService-to-PetRepo" style="stroke:#555555;stroke-width:1;"/><polygon fill="#555555" points="562.97,512.0038,571.6465,507.3434,566.0343,508.0528,565.3249,502.4406,562.97,512.0038" style="stroke:#555555;stroke-width:1;"/></g><!--link PetService to OwnerService--><g class="link" data-entity-1="ent0021" data-entity-2="ent0023" data-link-type="dependency" data-source-line="92" id="lnk59"><path d="M934.18,337.9537 C966.35,356.7237 1013.488,384.2193 1045.648,402.9893" fill="none" id="PetService-to-OwnerService" style="stroke:#555555;stroke-width:1;"/><polygon fill="#555555" points="1050.83,406.0137,1045.0733,398.0225,1046.5117,403.4934,1041.0408,404.9318,1050.83,406.0137" style="stroke:#555555;stroke-width:1;"/></g><!--link AppointmentService to AppointmentRepo--><g class="link" data-entity-1="ent0024" data-entity-2="ent0033" data-link-type="dependency" data-source-line="93" id="lnk60"><path d="M1137,337.9237 C1102.17,352.1138 1051.78,373.9938 1010,397.4938 C958.76,426.3237 948.88,438.3337 901,472.4337 C882.85,485.3637 867.5124,496.6404 851.7324,508.3904" fill="none" id="AppointmentService-to-AppointmentRepo" style="stroke:#555555;stroke-width:1;"/><polygon fill="#555555" points="846.92,511.9737,856.5275,509.8069,850.9303,508.9876,851.7497,503.3904,846.92,511.9737" style="stroke:#555555;stroke-width:1;"/></g><!--link VisitService to VisitRepo--><g class="link" data-entity-1="ent0025" data-entity-2="ent0034" data-link-type="dependency" data-source-line="94" id="lnk61"><path d="M1019.74,337.8738 C1006.86,365.9337 985.81,424.1138 1010,464.4337 C1013.89,470.9137 1019.02,467.8237 1025,472.4337 C1039.96,483.9737 1050.5331,495.0892 1060.9931,507.6092" fill="none" id="VisitService-to-VisitRepo" style="stroke:#555555;stroke-width:1;"/><polygon fill="#555555" points="1064.84,512.2137,1062.1393,502.7424,1061.6343,508.3767,1056,507.8716,1064.84,512.2137" style="stroke:#555555;stroke-width:1;"/></g><!--link LocationService to LocationRepo--><g class="link" data-entity-1="ent0026" data-entity-2="ent0035" data-link-type="dependency" data-source-line="95" id="lnk62"><path d="M764.09,337.7537 C745.62,375.6537 702.3178,464.5298 681.8078,506.6298" fill="none" id="LocationService-to-LocationRepo" style="stroke:#555555;stroke-width:1;"/><polygon fill="#555555" points="679.18,512.0238,686.7177,505.6847,681.3698,507.5288,679.5257,502.181,679.18,512.0238" style="stroke:#555555;stroke-width:1;"/></g><!--link LocationService to VetService--><g class="link" data-entity-1="ent0026" data-entity-2="ent0022" data-link-type="dependency" data-source-line="96" id="lnk63"><path d="M830.13,333.9838 C835.83,335.1837 841.52,336.3638 847,337.4938 C980.6,365.0437 1017.5,357.7837 1148,397.4938 C1155.77,399.8638 1158.3551,400.6304 1166.0451,403.7304" fill="none" id="LocationService-to-VetService" style="stroke:#555555;stroke-width:1;"/><polygon fill="#555555" points="1171.61,405.9737,1164.7583,398.8989,1166.9726,404.1043,1161.7672,406.3187,1171.61,405.9737" style="stroke:#555555;stroke-width:1;"/></g><!--link StatsService to OwnerRepo--><g class="link" data-entity-1="ent0027" data-entity-2="ent0030" data-link-type="dependency" data-source-line="104" id="lnk67"><path d="M645.31,337.5837 C672.04,368.5337 735.74,435.8937 806,464.4337 C845.26,480.3837 862.46,454.8237 901,472.4337 C920.01,481.1238 932.8709,493.5516 944.1109,507.3516" fill="none" id="StatsService-to-OwnerRepo" style="stroke:#555555;stroke-width:1;"/><polygon fill="#555555" points="947.9,512.0038,945.3177,502.4994,944.7424,508.127,939.1149,507.5516,947.9,512.0038" style="stroke:#555555;stroke-width:1;"/></g><!--link StatsService to VetRepo--><g class="link" data-entity-1="ent0027" data-entity-2="ent0031" data-link-type="dependency" data-source-line="105" id="lnk68"><path d="M665.11,337.9137 C729.62,368.9938 877.46,435.8837 1010,464.4337 C1037.64,470.3937 1111.62,459.9537 1137,472.4337 C1154.54,481.0637 1165.4193,493.3531 1174.6893,507.2431" fill="none" id="StatsService-to-VetRepo" style="stroke:#555555;stroke-width:1;"/><polygon fill="#555555" points="1178.02,512.2337,1176.3511,502.5273,1175.2444,508.0749,1169.6969,506.9682,1178.02,512.2337" style="stroke:#555555;stroke-width:1;"/></g><!--link StatsService to PetRepo--><g class="link" data-entity-1="ent0027" data-entity-2="ent0032" data-link-type="dependency" data-source-line="106" id="lnk69"><path d="M622.73,337.7637 C614.32,352.9237 601.9,376.3037 593,397.4938 C576.31,437.2438 563.1859,479.7597 555.4259,506.6097" fill="none" id="StatsService-to-PetRepo" style="stroke:#555555;stroke-width:1;"/><polygon fill="#555555" points="553.76,512.3738,560.1016,504.8382,555.1482,507.5703,552.4161,502.617,553.76,512.3738" style="stroke:#555555;stroke-width:1;"/></g><!--link StatsService to AppointmentRepo--><g class="link" data-entity-1="ent0027" data-entity-2="ent0033" data-link-type="dependency" data-source-line="107" id="lnk70"><path d="M584.15,333.6138 C578.38,334.9737 572.57,336.2937 567,337.4938 C495.42,352.9137 289.83,341.2037 243,397.4938 C223.97,420.3738 222.13,443.2338 243,464.4337 C252.63,474.2137 724,468.0437 737,472.4337 C760.63,480.4237 778.6892,493.8971 794.1092,508.0471" fill="none" id="StatsService-to-AppointmentRepo" style="stroke:#555555;stroke-width:1;"/><polygon fill="#555555" points="798.53,512.1038,794.6033,503.0715,794.846,508.7232,789.1944,508.9659,798.53,512.1038" style="stroke:#555555;stroke-width:1;"/></g><?plantuml-src rLTBRnen4BxxLuoIG-60r4IDAlLGjE9nYXHKrAWIwS4i4x2os2lRXD8g_xtsme9VkyaffNlRUTYptpSpdrOpNI1CKES5u-m7zFjzcA9yPZd2BTsXX85Obq8npGH_u4EgQUrNq15R3e8ZIAn2XDnruLd1dSnNgBIacl5b55xiGEYLELaT75r2r1FZ9PLq3Gjyf9j2ZmNNK_ORuUhQSUQs5ex6fNU5lJRNb2yBT48oASLs80eXuVAcUWZvO3_BVjd0d2f5KQ1K1zFvFuIKD7-YIuGBj_pE5kVT2xWSPwF1w3Fy8G2pRADNfvYVrlJTWAm2cs4xDDt7fbkHKqjwQB_RSfHPMGh6zTfGaJYgnLjbcmBkcUcNH6hIdYtMZ4yrJJkYJtnn6FTRiUuuE3zkqpDZ2HwFhuSVzmI7s1_24hYxdXhk8DgtkQ1LKtvkMBqDHcz1xSTZDCpswDb62N09875VAwnTGnFk8RJruBYsgdcJM7-hLoV3_sGdEMXxnNTACuTCQUGvsiqqkXhVZ4OLz0l3ofmg14k1JN9j5T2XqP0HcYQnoQ4aEi3I4XfhQYhxIr8OF0NSCccdyTyX7Qvqy9zUxslGrj72VpKXK8FK3UwWX5AHYdSdAQaZGNmqCQqYSqXgt8Kj2kHMc4njb2SF37_aax8L8n8a9JNDJ_ANHbhiMfXj4i5mmxzBbnFIIDY-z6Ow6bEyjcmFTJkIDB1VWvYgX4Iqjqn8UwZV1oHg3J-wgS7VVa5IrS6JdjtxBZf2l4PrYp_gWo-_JiH9BLnIFGHgxN1PyG8chmK4uZzhwgjGVsOfMggIZceKBRiwnDEcnYY_axdG27EXjLY3U0mt1i1Gv1jR72u0V-LOsXE_6Blv4LFmwVJRPkNxKKZZoQLGgaUNIubBQWvNzaI2V07sBiESTqN8IEmySX6x9isk4DU_?></g></svg>